<?xml version="1.0" encoding="utf-8"?>
<svg viewBox="0 0 48 48" width="48px" height="48px" xmlns="http://www.w3.org/2000/svg">
  <title>Une petite boucle</title>
  <path d="M 18.56 27.485 L 26.77 27.213 C 28.394 27.123 29.927 25.68 29.837 23.966 C 29.699 22.263 28.298 20.939 26.59 20.898 L 18.379 21.17 C 16.756 21.26 15.221 22.703 15.311 24.417 C 15.493 26.132 16.846 27.575 18.56 27.485 M 23.251 47.604 L 30.469 43.724 C 31.913 42.912 32.635 40.928 31.822 39.483 C 30.92 38.04 29.116 37.319 27.581 38.13 L 20.365 42.011 C 18.92 42.822 18.199 44.807 19.012 46.25 C 19.913 47.784 21.718 48.506 23.251 47.604 M 24.334 0.509 L 31.282 5.02 C 32.635 5.923 33.176 7.997 32.183 9.35 C 31.19 10.705 29.296 11.245 27.853 10.253 L 20.906 5.741 C 19.552 4.84 19.012 2.765 20.003 1.411 C 20.996 0.058 22.801 -0.484 24.334 0.509" style="stroke:none;stroke-width:1;stroke-dasharray:none;stroke-linecap:butt;stroke-dashoffset:0;stroke-linejoin:miter;stroke-miterlimit:4;fill:#f49600;fill-rule:nonzero;opacity:1"/>
</svg>