<?xml version="1.0" encoding="utf-8"?>
<svg viewBox="0 0 48 48" width="48px" height="48px" xmlns="http://www.w3.org/2000/svg">
  <title>Une petite boucle</title>
  <path d="M 29.44 20.514 L 21.23 20.786 C 19.606 20.876 18.073 22.319 18.163 24.033 C 18.301 25.736 19.702 27.06 21.41 27.101 L 29.621 26.829 C 31.244 26.739 32.779 25.296 32.689 23.582 C 32.507 21.867 31.154 20.424 29.44 20.514 M 24.749 0.395 L 17.531 4.275 C 16.087 5.087 15.365 7.071 16.178 8.516 C 17.08 9.959 18.884 10.68 20.419 9.869 L 27.635 5.988 C 29.08 5.177 29.801 3.192 28.988 1.749 C 28.087 0.215 26.282 -0.507 24.749 0.395 M 23.666 47.49 L 16.718 42.979 C 15.365 42.076 14.824 40.002 15.817 38.649 C 16.81 37.294 18.704 36.754 20.147 37.746 L 27.094 42.258 C 28.448 43.159 28.988 45.234 27.997 46.588 C 27.004 47.941 25.199 48.483 23.666 47.49" style="stroke:none;stroke-width:1;stroke-dasharray:none;stroke-linecap:butt;stroke-dashoffset:0;stroke-linejoin:miter;stroke-miterlimit:4;fill:#f49600;fill-rule:nonzero;opacity:1"/>
</svg>