<?xml version="1.0" encoding="utf-8"?>
<svg viewBox="0 0 48 48" width="48px" height="48px" xmlns="http://www.w3.org/2000/svg">
  <title>Une petite boucle</title>
  <path d="M 28.45 43.826 C 22.48 42.713 17.306 38.338 15.556 32.452 C 13.804 26.566 15.635 19.327 20.729 15.591 C 23.036 13.84 26.143 12.966 28.928 14.079 C 31.315 15.033 33.466 17.421 32.987 20.205 C 32.59 22.749 30.043 24.736 27.577 25.134 C 24.631 25.612 21.683 24.18 19.616 22.192 C 14.62 16.993 14.02 8.985 18.181 3.102 C 19.772 0.795 16.034 -1.272 14.521 0.954 C 9.745 7.873 10.141 17.577 15.475 24.022 C 18.103 27.201 22.162 29.511 26.459 29.511 C 30.362 29.511 34.262 27.361 36.171 23.943 C 38.081 20.521 37.526 16.225 34.977 13.204 C 32.432 10.182 28.051 8.83 24.073 9.544 C 15.475 11.136 10.459 20.361 10.699 28.476 C 11.068 38.035 17.947 46.094 27.337 47.962 C 30.043 48.439 31.159 44.303 28.45 43.826 Z" style="stroke:none;stroke-width:1;stroke-dasharray:none;stroke-linecap:butt;stroke-dashoffset:0;stroke-linejoin:miter;stroke-miterlimit:4;fill:#f49600;fill-rule:nonzero;opacity:1"/>
</svg>