<?xml version="1.0" encoding="utf-8"?>
<svg viewBox="0 0 192 192" class="header__logo" width="192px" height="192px" xmlns="http://www.w3.org/2000/svg">
  <title>L’atelier d’Alice, le logotype souriant</title>
  <path d="M 173.675 100.075 L 168.221 100.255 C 167.143 100.315 166.124 101.275 166.184 102.413 C 166.276 103.545 167.207 104.424 168.342 104.45 L 173.796 104.271 C 174.875 104.211 175.893 103.252 175.834 102.113 C 175.713 100.975 174.814 100.016 173.675 100.075 M 170.559 86.71 L 165.764 89.287 C 164.805 89.827 164.326 91.146 164.866 92.104 C 165.465 93.063 166.663 93.543 167.683 93.004 L 172.477 90.426 C 173.436 89.887 173.916 88.568 173.376 87.609 C 172.777 86.591 171.578 86.111 170.559 86.71 M 169.84 117.996 L 165.225 114.999 C 164.326 114.4 163.967 113.021 164.625 112.122 C 165.285 111.223 166.544 110.863 167.503 111.523 L 172.117 114.52 C 173.017 115.119 173.376 116.497 172.717 117.397 C 172.058 118.296 170.858 118.655 169.84 117.996" style="stroke: none; stroke-width: 1; stroke-dasharray: none; stroke-linecap: butt; stroke-dashoffset: 0; stroke-linejoin: miter; stroke-miterlimit: 4; fill: rgb(244, 150, 0); fill-rule: nonzero; opacity: 1;"/>
  <path d="M 40.623 58.422 L 40.203 59.381 C 40.023 59.68 39.784 59.98 39.484 60.22 C 39.184 60.459 38.884 60.579 38.525 60.699 C 38.226 60.819 37.866 60.819 37.506 60.759 C 37.147 60.699 36.787 60.579 36.427 60.34 L 35.709 59.8 L 27.197 51.29 L 26.898 51.409 L 27.078 55.605 L 24.141 55.724 L 23.961 51.229 C 23.961 50.81 23.961 50.391 24.081 50.091 L 24.501 49.132 C 24.68 48.832 24.92 48.532 25.22 48.293 C 25.52 48.053 25.819 47.933 26.179 47.813 C 26.479 47.694 26.838 47.694 27.197 47.753 C 27.557 47.813 27.917 47.933 28.276 48.173 L 28.996 48.712 L 37.506 57.223 L 37.806 57.103 L 37.626 52.907 L 40.563 52.788 L 40.743 57.283 L 40.623 58.422 Z M 38.945 34.868 C 38.489 34.403 38.231 33.78 38.226 33.13 C 38.226 32.83 38.285 32.53 38.465 32.231 C 38.585 31.931 38.765 31.691 39.005 31.452 C 39.244 31.211 39.484 31.032 39.843 30.912 L 40.743 30.732 L 41.642 30.912 C 41.942 31.032 42.241 31.211 42.48 31.452 L 42.66 31.632 L 42.78 31.871 L 44.399 34.508 C 44.758 35.048 44.878 35.647 44.698 36.186 C 44.579 36.726 44.219 37.265 43.739 37.744 L 42.301 39.123 L 40.922 37.685 L 42.241 36.426 C 42.601 36.066 42.66 35.647 42.421 35.228 L 42.181 34.868 L 41.462 35.347 L 40.623 35.587 L 39.724 35.467 C 39.424 35.407 39.244 35.107 38.945 34.868 Z M 67.054 30.373 L 67.353 30.432 L 68.013 29.054 L 70.589 30.373 L 69.751 31.991 C 69.415 32.661 68.895 33.222 68.252 33.609 C 67.142 34.27 65.722 34.07 64.836 33.13 L 64.417 33.369 L 64.356 34.328 C 64.297 34.628 64.177 34.987 63.997 35.287 C 63.548 36.025 62.905 36.626 62.139 37.025 C 61.539 37.385 60.94 37.565 60.341 37.565 C 59.051 37.639 57.783 37.209 56.805 36.366 C 56.257 35.925 55.808 35.374 55.486 34.748 C 54.947 33.729 54.527 32.71 54.288 31.691 C 54.048 30.673 54.048 29.713 54.168 28.754 C 54.288 27.795 54.647 26.957 55.187 26.178 C 55.726 25.398 56.445 24.739 57.344 24.199 C 58.003 23.774 58.779 23.565 59.562 23.6 C 60.221 23.66 60.76 23.9 61.24 24.379 L 61.66 24.14 L 61.12 22.461 L 63.937 20.843 L 67.054 30.373 Z M 61.78 33.729 C 62.318 33.429 62.739 33.069 63.038 32.59 C 63.319 32.155 63.503 31.664 63.577 31.152 C 63.637 30.612 63.637 30.073 63.518 29.534 C 63.397 28.994 63.158 28.394 62.858 27.856 C 62.529 27.218 61.973 26.726 61.3 26.477 C 60.641 26.237 59.981 26.357 59.322 26.717 C 58.783 27.016 58.364 27.376 58.064 27.856 C 57.782 28.29 57.598 28.781 57.524 29.294 C 57.464 29.833 57.464 30.373 57.584 30.912 C 57.704 31.452 57.943 32.051 58.243 32.59 C 58.603 33.249 59.082 33.669 59.742 33.909 C 60.401 34.149 61 34.149 61.78 33.729 Z M 75.864 19.944 L 72.388 20.843 L 71.609 17.847 L 75.744 16.768 L 75.444 11.014 L 78.561 10.175 L 78.86 15.928 L 83.116 14.79 L 83.895 17.786 L 78.981 19.105 L 79.28 25.877 L 79.58 25.998 L 82.277 22.821 L 84.435 24.739 L 81.498 28.155 C 80.958 28.754 80.359 29.174 79.639 29.354 C 79.28 29.473 78.92 29.473 78.561 29.414 C 78.202 29.354 77.842 29.294 77.542 29.114 L 76.703 28.455 C 76.452 28.136 76.269 27.768 76.164 27.376 L 76.103 27.016 L 76.044 26.537 L 75.864 19.944 Z M 94.023 21.083 L 93.964 21.502 C 93.964 22.102 94.203 22.641 94.683 23.061 C 95.162 23.48 95.762 23.66 96.541 23.72 C 97.32 23.72 97.979 23.6 98.459 23.301 C 98.938 23.001 99.298 22.641 99.598 22.282 L 102.175 23.9 C 101.28 25.237 99.908 26.18 98.339 26.537 C 96.874 26.873 95.348 26.832 93.904 26.417 C 93.244 26.178 92.705 25.818 92.226 25.398 C 91.746 24.978 91.386 24.44 91.147 23.84 C 90.896 23.19 90.775 22.498 90.787 21.802 C 90.787 20.664 90.967 19.525 91.327 18.506 C 91.686 17.487 92.226 16.588 92.885 15.809 C 93.544 15.03 94.383 14.431 95.342 14.01 C 96.404 13.563 97.546 13.338 98.698 13.352 C 99.598 13.352 100.377 13.531 101.036 13.771 C 101.695 14.01 102.235 14.431 102.654 14.91 C 103.073 15.39 103.373 15.928 103.613 16.528 C 103.853 17.127 103.913 17.727 103.913 18.386 L 103.853 19.045 L 103.733 19.884 L 103.433 21.202 L 94.023 21.083 Z M 98.099 16.288 C 97.355 16.266 96.622 16.475 96.002 16.888 C 95.402 17.307 94.982 17.786 94.683 18.326 L 100.677 18.386 C 100.677 17.727 100.497 17.247 100.077 16.827 C 99.657 16.468 99.058 16.288 98.099 16.288 Z M 115.24 28.874 C 114.881 28.874 114.521 28.874 114.161 28.754 C 113.802 28.694 113.442 28.515 113.143 28.275 L 112.424 27.556 C 112.034 26.929 111.926 26.168 112.124 25.458 L 112.424 24.619 L 117.997 13.951 L 117.817 13.711 L 113.922 15.149 L 112.963 12.393 L 117.218 10.834 C 117.578 10.715 117.997 10.594 118.357 10.594 C 118.716 10.594 119.076 10.594 119.436 10.715 C 119.795 10.774 120.155 10.954 120.454 11.194 L 121.174 11.913 C 121.563 12.54 121.671 13.3 121.474 14.01 L 121.174 14.85 L 115.6 25.518 L 115.78 25.758 L 119.675 24.319 L 120.634 27.077 L 116.379 28.635 L 115.24 28.874 Z M 132.441 35.347 C 132.022 35.407 131.602 35.407 131.243 35.287 C 130.883 35.167 130.524 35.107 130.224 34.928 L 129.385 34.269 C 129.145 34.028 128.965 33.669 128.845 33.369 C 128.725 33.069 128.666 32.71 128.725 32.35 C 128.725 31.991 128.845 31.632 129.085 31.272 C 129.265 30.972 129.385 30.732 129.624 30.553 L 134.059 25.638 L 133.94 25.338 L 129.804 25.758 L 129.565 22.881 L 134.059 22.461 C 134.479 22.402 134.899 22.402 135.258 22.521 C 135.618 22.641 135.978 22.701 136.277 22.881 L 137.116 23.54 L 137.656 24.44 C 137.775 24.739 137.835 25.098 137.775 25.458 C 137.775 25.818 137.656 26.178 137.416 26.537 C 137.236 26.836 137.116 27.077 136.876 27.256 L 132.441 32.17 L 132.562 32.47 L 136.696 32.051 L 136.937 34.928 L 132.441 35.347 Z M 142.211 22.161 L 141.611 22.941 C 141.371 23.181 141.072 23.301 140.772 23.361 C 140.472 23.42 140.173 23.48 139.813 23.42 C 139.513 23.361 139.214 23.301 138.914 23.121 C 138.638 22.97 138.393 22.766 138.195 22.521 C 138.015 22.282 137.835 21.982 137.775 21.682 C 137.656 21.382 137.656 21.083 137.656 20.723 C 137.656 20.423 137.775 20.064 137.955 19.765 L 138.554 18.986 C 138.795 18.745 139.094 18.626 139.394 18.565 C 139.693 18.506 139.993 18.446 140.292 18.506 C 140.592 18.565 140.892 18.626 141.191 18.806 C 141.491 18.986 141.731 19.165 141.911 19.405 C 142.091 19.644 142.27 19.944 142.33 20.244 L 142.45 21.202 C 142.45 21.562 142.33 21.862 142.211 22.161 Z M 145.566 38.404 L 145.208 38.703 C 144.787 39.183 144.608 39.662 144.668 40.322 C 144.728 40.921 145.028 41.52 145.627 42.06 C 146.226 42.599 146.766 42.959 147.365 43.078 C 147.964 43.199 148.444 43.199 148.863 43.078 L 149.642 46.016 C 149.283 46.135 148.804 46.195 148.324 46.195 C 147.174 46.179 146.045 45.891 145.028 45.356 C 144.428 45.057 143.829 44.577 143.17 43.978 C 142.127 43.025 141.466 41.725 141.312 40.322 C 141.252 39.662 141.371 39.063 141.551 38.404 C 141.731 37.744 142.15 37.205 142.63 36.665 C 144.089 35.057 146.057 33.999 148.204 33.669 C 149.223 33.549 150.241 33.669 151.261 34.028 C 152.346 34.433 153.343 35.044 154.197 35.827 C 154.857 36.426 155.336 37.086 155.575 37.744 C 155.875 38.404 155.996 39.063 155.996 39.662 C 155.996 40.322 155.875 40.921 155.575 41.52 C 155.264 42.303 154.746 42.986 154.077 43.498 L 153.418 44.037 L 152.339 44.816 L 145.566 38.404 Z M 151.86 37.624 C 151.261 37.086 150.601 36.726 149.942 36.665 C 149.283 36.606 148.563 36.606 147.964 36.845 L 152.339 40.981 C 152.759 40.502 152.999 40.022 152.938 39.423 C 152.879 38.824 152.519 38.284 151.86 37.624 Z M 161.988 49.971 L 161.988 49.671 L 159.651 48.772 L 160.67 46.075 L 163.067 46.974 C 163.547 47.154 163.907 47.394 164.266 47.694 C 164.625 47.993 164.925 48.293 165.105 48.653 C 165.465 49.252 165.645 49.851 165.584 50.45 C 165.525 51.049 165.285 51.649 164.746 52.069 L 164.985 52.428 C 165.764 52.308 166.483 52.428 167.143 52.788 C 167.802 53.148 168.282 53.627 168.701 54.226 C 169.23 54.951 169.405 55.875 169.18 56.744 C 169.001 57.582 168.462 58.302 167.503 58.901 L 166.903 59.201 L 166.184 59.5 L 165.645 59.68 L 163.547 56.924 L 163.907 56.803 L 164.506 56.503 C 164.925 56.264 165.165 55.904 165.285 55.545 C 165.404 55.185 165.285 54.706 164.985 54.287 C 164.625 53.686 164.146 53.387 163.547 53.267 C 162.947 53.148 162.229 53.267 161.389 53.567 L 157.254 55.125 L 158.932 57.703 L 156.355 59.381 L 151.62 51.949 L 154.197 50.27 L 155.516 52.368 L 161.988 49.971 Z M 45.418 160.609 L 45.477 160.908 L 47.155 161.088 L 46.796 163.965 L 44.758 163.725 C 44.339 163.665 43.919 163.606 43.619 163.426 L 42.721 162.886 C 42.24 162.485 41.903 161.937 41.762 161.328 C 41.603 160.721 41.689 160.074 42.001 159.53 L 41.642 159.23 C 41.342 159.35 41.043 159.47 40.683 159.47 L 39.663 159.47 L 38.585 159.11 C 38.226 158.931 37.806 158.691 37.386 158.331 C 36.889 157.934 36.497 157.419 36.247 156.833 C 36.008 156.234 35.828 155.634 35.828 155.035 C 35.828 154.435 35.948 153.777 36.128 153.117 C 36.368 152.458 36.727 151.858 37.206 151.319 C 37.926 150.42 38.765 149.76 39.663 149.161 C 40.563 148.562 41.462 148.262 42.361 148.022 C 43.26 147.783 44.219 147.843 45.118 148.082 C 46.017 148.322 46.916 148.742 47.695 149.461 C 48.355 150.06 48.834 150.66 48.954 151.379 C 49.073 152.098 49.073 152.697 48.774 153.297 L 49.134 153.597 L 55.187 148.922 L 57.644 151.019 L 51.591 155.634 L 45.418 160.609 Z M 40.443 156.833 C 41.274 157.576 42.415 157.867 43.5 157.612 C 44.63 157.386 45.635 156.744 46.317 155.814 C 46.856 155.214 47.096 154.556 47.036 153.896 C 46.976 153.237 46.736 152.638 46.137 152.098 C 45.306 151.355 44.165 151.065 43.08 151.319 C 41.962 151.576 40.967 152.211 40.264 153.117 C 39.784 153.656 39.544 154.315 39.484 154.975 C 39.424 155.634 39.784 156.293 40.443 156.833 Z M 63.518 156.893 L 64.117 156.114 C 64.356 155.874 64.656 155.754 64.956 155.694 L 65.855 155.574 C 66.155 155.574 66.454 155.694 66.754 155.874 C 67.054 155.993 67.293 156.234 67.473 156.473 L 67.952 157.312 C 68.073 157.612 68.073 157.911 68.073 158.211 C 68.073 158.511 67.952 158.871 67.772 159.17 L 67.653 159.41 L 67.533 159.65 L 65.556 162.047 C 65.135 162.586 64.656 162.827 64.057 162.886 C 63.429 162.939 62.799 162.792 62.259 162.467 L 60.521 161.568 L 61.42 159.769 L 63.038 160.609 C 63.518 160.848 63.877 160.789 64.237 160.429 L 64.477 160.129 L 63.757 159.589 C 63.518 159.35 63.397 159.11 63.278 158.871 C 63.158 158.571 63.098 158.331 63.158 157.972 L 63.518 156.893 Z M 79.879 175.712 L 74.126 174.333 L 71.609 177.69 L 68.073 176.851 L 79.999 161.208 L 86.113 162.706 L 82.277 180.327 L 78.981 179.548 L 79.879 175.712 Z M 76.164 171.456 L 80.539 172.535 L 82.577 163.545 L 82.097 163.426 L 76.164 171.456 Z M 98.399 181.706 C 98.04 181.825 97.68 181.825 97.32 181.825 C 96.947 181.83 96.577 181.749 96.241 181.586 C 95.882 181.465 95.582 181.286 95.342 181.046 C 95.102 180.807 94.863 180.506 94.743 180.207 C 94.623 179.907 94.563 179.488 94.563 179.069 L 94.683 178.169 L 97.68 166.542 L 97.44 166.362 L 93.964 168.7 L 92.406 166.243 L 96.182 163.785 C 96.541 163.545 96.901 163.365 97.261 163.306 C 97.619 163.185 97.979 163.185 98.339 163.185 C 98.713 163.18 99.082 163.263 99.418 163.426 C 99.778 163.545 100.077 163.725 100.317 163.965 C 100.557 164.205 100.796 164.504 100.916 164.804 C 101.036 165.104 101.096 165.523 101.096 165.943 L 100.976 166.842 L 97.979 178.469 L 98.219 178.648 L 101.695 176.311 L 103.253 178.769 L 99.477 181.226 L 98.399 181.706 Z M 120.095 178.469 L 119.196 179.188 C 118.881 179.369 118.536 179.49 118.177 179.548 C 117.817 179.607 117.458 179.668 117.099 179.607 L 116.079 179.308 L 115.3 178.648 C 115.061 178.349 114.94 177.99 114.821 177.63 L 114.701 176.731 L 114.761 170.078 L 114.461 169.958 L 111.645 173.015 L 109.547 171.037 L 112.603 167.741 L 113.503 167.022 C 113.817 166.841 114.162 166.719 114.521 166.662 C 114.881 166.602 115.24 166.542 115.6 166.602 L 116.619 166.902 L 117.398 167.561 C 117.637 167.86 117.757 168.22 117.878 168.58 L 117.997 169.479 L 117.937 176.131 L 118.237 176.252 L 121.054 173.194 L 123.152 175.173 L 120.095 178.469 Z M 118.597 162.167 C 118.716 162.81 118.588 163.474 118.237 164.025 C 118.057 164.264 117.878 164.504 117.578 164.684 C 117.338 164.864 117.038 164.984 116.678 165.104 C 116.32 165.164 116.02 165.164 115.72 165.104 L 114.821 164.804 C 114.581 164.624 114.341 164.444 114.161 164.145 C 113.982 163.905 113.861 163.606 113.742 163.246 C 113.622 162.603 113.751 161.939 114.102 161.388 C 114.282 161.148 114.461 160.908 114.761 160.728 C 115.001 160.548 115.3 160.429 115.66 160.309 C 115.96 160.249 116.32 160.249 116.619 160.309 L 117.518 160.609 C 117.757 160.789 117.997 160.969 118.177 161.268 C 118.357 161.568 118.536 161.807 118.597 162.167 Z M 141.072 165.344 C 141.312 166.902 141.072 168.4 140.412 169.778 C 139.754 171.157 138.435 172.296 136.637 173.194 C 135.358 173.845 133.883 173.994 132.501 173.615 C 131.816 173.383 131.184 173.016 130.643 172.535 C 130.044 171.996 129.565 171.337 129.145 170.498 C 127.684 167.715 128.115 164.317 130.224 161.987 C 130.943 161.148 131.842 160.489 132.981 159.949 C 133.82 159.53 134.599 159.29 135.378 159.23 C 136.097 159.17 136.816 159.23 137.416 159.47 C 138.015 159.71 138.615 160.01 139.094 160.489 C 139.574 160.969 139.993 161.508 140.292 162.107 L 137.656 164.145 C 137.296 163.365 136.757 162.827 136.158 162.647 C 135.558 162.406 134.839 162.527 133.94 162.946 C 132.896 163.442 132.112 164.356 131.782 165.463 C 131.602 166.002 131.542 166.542 131.602 167.141 C 131.67 167.723 131.832 168.29 132.082 168.819 C 132.501 169.719 133.041 170.198 133.76 170.378 C 134.419 170.557 135.138 170.498 135.798 170.138 C 136.757 169.659 137.416 169.06 137.716 168.34 C 138.015 167.621 138.135 166.842 138.015 165.943 L 141.072 165.344 Z M 149.162 158.99 L 149.403 159.35 C 149.822 159.83 150.301 160.069 150.901 160.069 C 151.5 160.069 152.159 159.83 152.699 159.35 C 153.298 158.81 153.718 158.331 153.898 157.792 C 154.077 157.252 154.137 156.772 154.077 156.293 L 157.074 155.874 L 157.134 157.193 L 156.775 158.691 C 156.224 159.983 155.359 161.116 154.257 161.987 C 153.177 162.918 151.787 163.41 150.362 163.365 C 148.999 163.288 147.735 162.634 146.885 161.568 C 146.166 160.668 145.566 159.71 145.208 158.691 C 144.848 157.672 144.608 156.653 144.668 155.634 C 144.668 154.615 144.908 153.597 145.387 152.638 C 145.866 151.678 146.586 150.78 147.545 149.94 C 148.204 149.341 148.923 148.981 149.583 148.801 C 150.241 148.622 150.961 148.562 151.56 148.622 C 152.159 148.682 152.759 148.922 153.358 149.221 C 153.898 149.521 154.377 149.94 154.796 150.42 L 155.156 150.96 L 155.575 151.678 L 156.175 152.877 L 149.162 158.99 Z M 149.162 152.697 C 148.072 153.623 147.587 155.078 147.904 156.473 L 152.519 152.638 C 152.1 152.158 151.62 151.858 151.081 151.858 C 150.541 151.798 149.882 152.098 149.162 152.697 Z" style="stroke: none; stroke-width: 1; stroke-dasharray: none; stroke-linecap: butt; stroke-dashoffset: 0; stroke-linejoin: miter; stroke-miterlimit: 4; fill: rgb(0, 0, 0); fill-rule: nonzero; opacity: 1;"/>
  <path d="M 29.535 120.393 C 25.04 119.554 21.144 116.258 19.825 111.822 C 18.507 107.388 19.886 101.934 23.721 99.117 C 25.459 97.798 27.797 97.139 29.895 97.978 C 31.692 98.697 33.311 100.495 32.951 102.592 C 32.651 104.511 30.734 106.009 28.876 106.309 C 26.659 106.668 24.441 105.589 22.883 104.091 C 19.122 100.175 18.669 94.141 21.804 89.707 C 23.002 87.969 20.185 86.411 19.046 88.089 C 15.45 93.303 15.75 100.615 19.766 105.47 C 21.744 107.867 24.801 109.605 28.037 109.605 C 30.973 109.605 33.91 107.987 35.349 105.409 C 36.787 102.833 36.368 99.596 34.45 97.319 C 32.532 95.041 29.235 94.022 26.238 94.562 C 19.766 95.76 15.99 102.713 16.17 108.826 C 16.447 116.028 21.627 122.101 28.696 123.509 C 30.734 123.869 31.573 120.753 29.535 120.393 Z" style="stroke: none; stroke-width: 1; stroke-dasharray: none; stroke-linecap: butt; stroke-dashoffset: 0; stroke-linejoin: miter; stroke-miterlimit: 4; fill: rgb(244, 150, 0); fill-rule: nonzero; opacity: 1;"/>
  <path d="M 100.436 146.824 C 99.657 146.943 98.639 146.644 97.74 146.943 C 96.361 146.524 94.923 147.064 93.544 146.584 C 93.305 146.464 92.945 146.704 92.586 146.704 L 91.627 146.584 C 90.128 146.584 88.57 146.584 87.131 145.925 C 85.453 145.865 83.955 145.086 82.337 144.726 C 81.737 144.606 81.138 144.306 80.539 144.067 C 78.92 143.408 77.243 143.048 75.864 141.969 C 74.905 142.029 74.426 141.131 73.646 140.771 C 71.668 139.872 69.931 138.613 68.132 137.414 C 67.64 137.101 67.195 136.718 66.814 136.276 C 66.035 135.556 65.076 135.077 64.297 134.358 L 61.539 132.02 L 60.881 131.601 C 60.581 131.361 60.281 131.181 60.041 130.881 C 59.622 130.402 59.262 129.863 58.783 129.443 L 58.483 129.023 L 56.265 126.326 C 55.846 125.787 55.367 125.247 55.067 124.529 C 54.707 123.809 54.048 123.21 53.568 122.491 C 52.789 121.232 52.01 119.974 51.53 118.595 C 51.291 117.936 50.751 117.397 50.632 116.677 L 50.332 115.659 C 50.152 114.58 49.433 113.68 49.134 112.662 L 48.175 109.725 C 47.815 108.766 47.875 107.627 47.276 106.728 C 47.155 106.609 47.155 106.368 47.155 106.189 C 47.096 104.75 46.736 103.312 46.376 101.934 L 46.256 101.514 L 46.017 96.659 C 46.017 96.24 46.137 95.76 45.837 95.341 L 45.837 95.041 C 45.897 94.621 46.017 94.262 45.957 93.842 C 45.837 92.225 46.137 90.666 46.256 89.108 C 46.317 88.208 46.497 87.25 46.676 86.35 L 46.916 85.871 L 47.155 84.912 C 47.215 84.493 47.096 84.013 47.395 83.654 C 47.575 83.414 47.036 83.054 47.515 82.695 C 47.695 82.575 47.755 82.096 47.755 81.796 C 47.815 81.436 47.695 81.016 47.875 80.717 C 48.534 79.399 48.534 77.96 49.193 76.641 C 49.314 76.462 49.373 76.282 49.253 76.102 C 49.433 76.042 49.613 75.922 49.673 75.683 C 49.793 75.263 50.152 74.963 50.332 74.544 L 52.07 70.888 C 52.31 70.349 52.669 69.989 52.969 69.509 C 53.209 69.03 53.628 68.67 53.988 68.251 C 54.048 68.191 54.228 68.131 54.228 68.011 C 54.347 67.112 55.067 66.573 55.486 65.854 C 55.966 64.895 56.385 63.936 57.045 63.037 L 58.603 61.178 C 59.286 60.384 59.985 59.605 60.701 58.841 C 61.24 58.242 61.96 57.762 62.379 56.983 C 62.618 56.564 63.098 56.264 63.458 55.965 C 64.656 55.005 65.795 53.866 67.173 53.087 C 68.373 52.428 69.331 51.47 70.47 50.81 L 73.706 48.832 C 74.246 48.473 74.905 48.173 75.504 47.933 C 75.924 47.813 76.463 47.874 76.703 47.514 C 77.002 47.154 77.602 47.334 77.722 46.795 C 78.501 46.555 79.28 46.195 80.059 46.075 C 80.659 45.956 81.198 45.836 81.677 45.596 C 82.876 44.877 84.194 44.757 85.453 44.397 C 85.753 44.337 86.052 44.517 86.352 44.157 C 86.532 43.978 86.892 44.037 87.191 44.037 C 87.551 43.978 87.911 44.098 88.27 43.857 C 88.45 43.738 88.81 43.798 89.049 43.798 C 89.828 43.857 90.548 43.798 91.327 43.438 L 91.986 43.319 C 92.765 43.258 93.544 43.139 94.323 42.899 L 95.102 42.839 L 101.695 42.839 C 102.774 42.839 103.853 43.019 104.932 43.199 C 105.232 43.258 105.531 43.078 105.89 43.258 C 106.19 43.438 106.669 43.438 107.029 43.498 L 108.108 43.738 L 109.187 43.918 C 109.607 44.098 110.086 44.098 110.565 44.098 C 111.404 44.098 112.064 44.577 112.843 44.697 C 113.203 44.757 113.622 44.397 114.041 44.816 C 114.282 45.057 114.761 45.116 115.12 45.296 L 116.259 45.956 L 117.099 46.195 C 117.518 46.375 117.997 46.375 118.357 46.735 C 118.536 46.915 118.777 47.034 119.016 47.095 C 120.155 47.274 121.174 47.933 122.253 48.233 L 122.553 48.293 C 123.751 49.252 125.189 49.791 126.388 50.691 L 128.905 52.428 C 129.984 53.087 130.943 53.807 131.602 54.886 C 131.662 55.005 131.902 55.066 132.082 55.185 C 132.681 55.724 133.4 56.204 133.88 56.924 C 134.179 57.343 134.659 57.642 135.078 58.062 L 136.217 59.261 L 138.435 61.538 C 139.231 62.231 139.865 63.09 140.292 64.055 C 141.432 65.074 142.031 66.453 142.81 67.712 C 143.769 69.27 144.787 70.828 145.387 72.566 C 145.507 72.925 145.987 73.045 145.866 73.525 C 146.525 74.664 146.705 75.983 147.185 77.121 C 147.844 78.62 148.264 80.178 148.624 81.736 L 148.743 82.455 L 148.923 83.175 C 149.103 83.534 149.223 83.893 149.162 84.313 C 149.162 84.493 149.223 84.792 149.342 84.912 C 149.583 85.152 149.642 85.391 149.403 85.692 L 149.403 86.111 C 149.942 86.95 149.822 87.909 150.002 88.808 C 150.122 89.347 150.241 89.887 150.122 90.426 C 150.002 90.966 150.182 91.625 150.182 92.164 L 150.182 93.963 C 150.182 94.382 150.062 94.862 150.362 95.221 L 150.362 95.521 C 150.002 96.12 150.182 96.719 150.182 97.379 C 150.182 98.458 150.062 99.536 149.702 100.615 L 149.702 100.975 C 149.572 102.356 149.412 103.735 149.223 105.11 C 149.162 105.769 148.983 106.429 148.743 107.088 C 148.504 107.807 148.444 108.646 148.084 109.365 C 147.784 110.025 147.665 110.804 147.485 111.523 C 147.425 111.703 147.604 111.942 147.545 112.122 L 147.185 112.662 C 146.945 113.141 146.825 113.561 146.705 114.1 C 146.645 114.639 146.406 115.119 146.226 115.659 L 145.147 118.476 L 144.848 118.895 C 144.787 119.014 144.548 119.194 144.548 119.314 C 144.488 120.093 144.008 120.633 143.769 121.293 C 143.469 121.951 142.99 122.491 142.63 123.15 C 141.671 124.709 140.353 126.027 139.333 127.526 L 139.274 127.585 C 138.255 128.005 137.775 129.023 136.937 129.623 C 136.277 130.102 135.737 130.822 135.198 131.481 C 134.659 132.2 134.059 132.919 133.28 133.399 L 133.1 133.518 C 132.262 134.538 131.182 135.197 130.164 135.976 C 128.905 136.934 127.707 137.954 126.208 138.493 C 125.669 138.673 125.249 139.093 124.77 139.392 C 124.53 139.512 124.35 139.692 124.111 139.751 C 123.332 139.992 122.672 140.411 122.073 140.89 C 121.653 141.19 121.114 141.25 120.695 141.49 C 120.215 141.789 119.795 141.969 119.315 142.029 C 118.836 142.089 118.477 142.629 117.937 142.509 C 117.218 143.108 116.199 143.168 115.36 143.588 C 113.982 144.247 112.424 144.547 111.045 145.146 L 110.086 145.385 C 109.187 145.445 108.288 145.685 107.449 145.985 L 107.029 146.045 C 105.771 146.045 104.572 146.285 103.373 146.464 C 102.415 146.943 101.456 146.824 100.436 146.824 Z M 86.052 50.75 L 85.933 50.75 C 85.394 50.93 84.854 51.229 84.315 51.29 C 83.715 51.349 83.116 51.29 82.756 51.889 L 82.456 52.009 C 81.951 51.974 81.448 52.1 81.019 52.368 L 79.639 52.968 C 78.981 53.267 78.321 53.686 77.722 54.107 C 76.763 54.706 75.864 55.365 74.845 55.845 C 73.706 56.444 72.867 57.343 71.789 58.002 C 71.368 58.302 71.01 58.721 70.589 58.961 C 70.05 59.261 69.631 59.62 69.391 60.16 L 69.211 60.279 C 68.672 60.22 68.432 60.699 68.132 60.999 L 66.094 63.216 L 64.896 64.235 C 64.536 64.655 64.297 65.254 63.877 65.614 C 63.178 66.26 62.555 66.984 62.019 67.771 L 61.06 68.97 C 60.341 69.869 59.922 70.888 59.382 71.847 L 57.584 75.263 C 57.344 75.803 57.045 76.341 56.685 76.821 C 56.265 77.361 55.906 77.84 55.846 78.559 L 55.606 78.799 C 55.247 79.039 55.247 79.399 55.126 79.758 L 54.767 81.196 C 54.048 81.496 54.468 82.155 54.347 82.635 C 54.347 82.754 54.168 82.875 54.108 82.995 L 53.868 83.594 C 53.568 84.493 53.509 85.512 53.209 86.411 C 53.089 86.89 53.149 87.489 52.969 88.029 C 53.329 88.508 52.789 89.108 53.089 89.588 C 52.851 90.913 52.731 92.257 52.73 93.603 C 52.73 95.58 53.149 97.559 52.969 99.596 C 52.969 100.016 53.089 100.375 53.149 100.795 L 53.448 102.173 C 53.689 102.952 53.568 103.851 53.928 104.571 L 54.048 105.11 C 54.288 106.249 54.228 107.508 54.887 108.526 L 54.947 108.946 L 55.187 109.665 L 55.966 111.763 C 56.385 112.662 56.685 113.621 57.285 114.459 L 57.584 115.059 C 57.764 115.659 58.064 116.198 58.423 116.797 C 58.722 117.337 59.143 117.756 59.382 118.235 C 59.922 119.554 60.76 120.573 61.48 121.772 C 62.139 122.851 62.918 123.869 63.817 124.828 C 64.956 126.027 65.855 127.465 67.114 128.544 C 68.552 129.743 69.691 131.241 71.309 132.26 L 73.467 133.698 C 73.706 133.818 74.006 133.579 74.246 133.998 C 74.365 134.178 74.785 134.178 75.085 134.297 L 75.624 134.597 L 76.883 135.436 L 77.722 135.856 C 78.681 136.155 79.52 136.755 80.539 136.934 C 81.438 137.114 82.337 137.414 83.116 137.893 C 83.655 138.193 84.194 138.673 84.914 138.493 L 85.214 138.553 C 86.052 139.032 87.011 138.972 87.97 139.152 C 88.211 139.212 88.45 139.152 88.63 139.272 C 89.289 139.572 89.948 139.632 90.668 139.632 L 91.386 139.751 C 91.627 139.812 91.926 139.872 92.166 139.812 C 92.525 139.751 92.765 139.572 93.185 139.812 C 93.485 140.051 93.904 139.572 94.264 139.812 C 94.563 140.051 94.863 139.572 95.282 139.751 C 95.582 139.872 96.061 139.931 96.361 139.812 C 96.84 139.572 97.38 139.751 97.86 139.632 C 98.459 139.512 99.058 139.632 99.657 139.632 C 99.898 139.632 100.197 139.692 100.436 139.572 C 101.216 139.272 101.995 139.452 102.774 139.152 C 104.392 139.332 105.89 138.673 107.449 138.373 C 108.348 138.193 109.187 137.774 110.086 137.535 L 111.225 137.294 C 111.764 137.114 112.184 136.875 112.723 136.755 C 113.323 136.635 113.682 136.216 114.341 136.155 C 114.881 136.096 115.3 135.736 115.84 135.616 C 116.439 135.497 116.739 134.837 117.398 134.897 C 118.956 134.118 120.515 133.399 121.953 132.38 C 122.732 131.84 123.451 131.241 124.291 130.762 C 125.549 130.043 126.748 129.203 127.766 128.125 L 127.946 128.005 C 128.845 127.465 129.565 126.806 130.283 126.087 C 130.763 125.607 131.123 125.008 131.662 124.529 C 132.621 123.63 133.4 122.611 134.179 121.592 C 134.899 120.633 135.498 119.614 136.158 118.595 C 136.577 117.936 136.876 117.157 137.356 116.557 C 137.835 115.898 138.195 115.119 138.615 114.459 C 139.574 112.842 140.173 111.104 140.772 109.305 L 141.671 105.889 L 141.911 104.93 C 141.97 104.271 141.97 103.552 142.091 102.892 L 142.33 100.975 L 142.57 98.937 C 142.27 98.697 142.57 98.397 142.57 98.158 L 142.69 97.199 C 142.69 96.6 142.81 96 142.69 95.461 C 142.63 95.161 142.51 94.921 142.69 94.621 L 142.69 94.322 C 142.391 93.963 142.57 93.543 142.51 93.123 C 142.45 92.464 142.57 91.745 142.33 91.025 C 142.159 90.504 142.077 89.956 142.091 89.408 C 142.091 88.208 141.791 87.13 141.551 85.992 L 141.371 85.272 C 141.252 84.673 141.252 84.133 141.072 83.534 C 140.832 82.635 140.592 81.736 140.233 80.897 C 139.873 79.998 139.754 79.039 139.333 78.14 C 139.214 77.9 138.914 77.66 138.914 77.42 C 138.854 76.222 137.955 75.323 137.775 74.184 C 137.716 73.884 137.656 73.585 137.476 73.405 C 136.757 72.566 136.457 71.427 135.798 70.529 L 134.479 68.431 C 133.52 67.112 132.321 65.974 131.243 64.715 L 130.164 63.456 L 128.905 62.377 L 127.707 61.178 C 127.587 61.059 127.467 60.879 127.287 60.819 L 123.811 58.242 C 121.773 56.863 119.616 55.605 117.338 54.646 C 116.739 54.406 116.259 53.807 115.54 53.927 L 115.36 53.807 C 113.861 52.788 112.124 52.548 110.445 51.949 C 109.666 51.709 108.828 51.649 108.049 51.47 L 106.25 51.049 L 104.392 50.81 C 103.793 50.75 103.253 50.63 102.654 50.63 L 97.261 50.391 L 93.305 50.391 L 91.447 50.331 C 90.787 50.331 90.188 50.45 89.529 50.391 C 88.929 50.331 88.33 50.63 87.731 50.45 C 87.61 50.391 87.431 50.511 87.371 50.57 C 87.072 50.75 86.952 51.049 86.592 51.11 C 86.532 51.049 86.292 51.049 86.052 50.75 Z" style="stroke: none; stroke-width: 1; stroke-dasharray: none; stroke-linecap: butt; stroke-dashoffset: 0; stroke-linejoin: miter; stroke-miterlimit: 4; fill: rgb(0, 186, 238); fill-rule: nonzero; opacity: 1;"/>
  <path d="M 101.276 137.235 L 101.096 137.235 C 100.616 137.355 100.197 137.355 99.718 137.355 C 99.178 137.355 98.698 137.535 98.159 137.535 L 95.043 137.535 C 94.683 137.594 94.444 137.175 94.023 137.414 C 93.784 137.535 93.365 137.355 93.005 137.355 L 92.046 137.355 L 91.147 137.175 C 90.248 137.055 89.349 136.695 88.39 136.695 C 87.97 136.276 87.311 136.335 86.831 136.155 C 85.873 135.796 84.854 135.556 83.835 135.376 C 83.235 135.256 82.577 135.017 82.037 134.718 L 80.119 133.759 L 77.842 132.559 C 76.703 132.02 75.564 131.361 74.545 130.642 L 74.365 130.582 C 72.807 129.922 71.668 128.724 70.29 127.825 C 69.751 127.465 69.391 126.866 68.911 126.387 L 68.132 125.668 L 65.795 123.03 L 65.076 122.191 C 64.656 121.772 64.237 121.412 64.057 120.813 L 63.757 120.393 C 63.026 119.682 62.454 118.824 62.079 117.876 C 61.66 116.917 61.06 116.018 60.521 115.119 C 59.801 113.92 58.963 112.781 58.663 111.403 C 58.423 110.384 57.824 109.605 57.584 108.646 L 56.385 105.05 C 56.322 104.777 56.221 104.515 56.085 104.271 C 55.846 103.792 55.786 103.252 55.726 102.713 C 55.666 102.413 55.547 102.054 55.666 101.813 C 55.906 101.394 55.486 101.154 55.547 100.795 L 55.547 99.776 L 55.306 98.278 C 55.247 97.798 55.306 97.379 55.126 96.899 C 55.007 96.539 54.947 95.94 55.126 95.641 C 55.367 95.281 55.126 94.921 55.247 94.562 C 55.426 94.202 55.306 93.783 55.306 93.363 L 55.306 91.565 C 55.238 90.743 55.383 89.918 55.726 89.167 C 55.966 88.688 56.026 88.089 56.146 87.55 C 56.385 86.231 56.805 84.972 57.164 83.654 C 57.344 82.995 57.404 82.335 57.704 81.736 L 58.663 79.518 C 58.922 79.03 59.103 78.504 59.202 77.96 C 59.322 77.181 59.861 76.641 60.102 75.922 C 60.341 75.263 60.701 74.664 61 74.004 L 61.719 72.686 C 62.139 72.087 62.618 71.547 62.978 70.948 C 63.637 69.75 64.536 68.73 65.376 67.651 C 66.574 66.093 67.833 64.655 69.271 63.337 L 70.83 62.198 L 71.069 61.958 C 71.548 61.478 71.969 60.999 72.568 60.639 C 73.167 60.34 73.646 59.8 74.185 59.381 L 75.864 58.242 L 77.542 57.043 C 78.381 56.503 79.28 56.084 80.119 55.605 C 81.377 54.825 83.655 54.046 85.453 53.567 C 87.072 53.148 88.69 52.848 90.308 52.548 C 91.866 52.249 93.424 51.889 95.043 52.069 L 96.361 52.069 C 96.721 52.128 97.081 51.949 97.5 52.009 L 98.819 52.069 L 100.017 52.069 L 101.156 51.949 C 101.515 51.949 101.935 52.069 102.294 52.189 L 103.433 52.428 C 103.553 52.488 103.674 52.308 103.913 52.428 C 104.692 52.848 105.531 52.968 106.37 52.968 C 107.269 53.028 108.228 53.148 109.127 53.387 L 110.565 53.747 C 111.404 53.866 112.124 54.406 113.023 54.466 C 113.922 54.526 114.581 55.185 115.36 55.425 C 116.02 55.665 116.739 55.965 117.398 56.324 C 117.878 56.624 118.477 56.863 118.956 57.283 L 120.515 58.242 C 120.814 58.422 121.174 58.482 121.413 58.721 C 122.013 59.32 122.792 59.8 123.391 60.399 C 123.512 60.52 123.631 60.639 123.751 60.639 C 124.949 60.819 125.549 61.958 126.628 62.497 C 126.748 63.216 127.467 63.456 127.887 63.936 C 128.306 64.355 128.965 64.655 129.265 65.194 C 129.804 66.093 130.883 66.633 131.182 67.712 C 131.782 68.131 131.962 68.85 132.382 69.329 L 133.341 70.529 L 134.12 71.907 L 134.899 73.285 L 135.978 75.083 C 136.457 76.042 137.056 77.001 137.296 78.08 L 137.296 78.2 C 137.775 78.799 137.895 79.518 138.135 80.237 C 138.374 80.957 138.615 81.676 138.734 82.396 C 138.854 82.995 138.854 83.534 139.394 83.893 C 139.394 84.733 139.633 85.512 139.873 86.291 C 139.633 86.71 139.873 87.19 139.754 87.669 C 139.693 87.969 139.873 88.269 139.873 88.568 L 140.113 92.344 C 140.173 92.883 140.412 93.363 140.353 93.902 C 140.292 94.202 140.173 94.442 140.173 94.742 L 140.353 95.461 C 140.353 95.821 140.472 96.18 140.173 96.539 L 140.173 96.839 C 140.472 97.738 140.233 98.638 140.113 99.476 C 139.933 100.615 140.173 101.874 139.633 102.952 C 139.513 103.252 139.933 103.552 139.574 103.851 C 139.394 103.971 139.394 104.391 139.394 104.63 L 139.333 105.589 L 139.153 106.189 C 139.034 106.548 138.795 106.848 138.914 107.208 L 138.854 107.508 C 138.255 108.467 137.955 109.545 137.536 110.564 L 136.217 113.561 C 136.158 113.68 136.097 113.86 135.978 113.92 C 135.498 114.22 135.438 114.7 135.378 115.119 C 135.318 115.479 135.138 115.718 134.899 115.958 C 134.239 116.737 133.82 117.696 133.28 118.595 L 132.262 120.034 C 131.662 120.872 131.003 121.592 130.344 122.371 C 129.598 123.205 128.775 123.968 127.887 124.648 C 127.167 125.188 126.628 125.967 126.028 126.626 C 125.789 126.866 125.728 127.346 125.249 127.046 L 125.01 127.285 C 124.77 127.765 124.291 127.945 123.87 128.184 C 123.571 128.364 123.091 128.484 123.152 129.023 L 123.032 129.203 C 122.373 129.203 122.132 129.863 121.593 130.043 C 121.234 130.163 120.754 130.342 120.634 130.762 C 120.095 130.701 119.916 131.122 119.556 131.421 C 119.436 131.481 119.315 131.66 119.196 131.66 C 118.777 131.601 118.597 132.02 118.297 132.08 C 117.937 132.14 117.757 132.44 117.458 132.559 C 116.499 133.099 115.48 133.518 114.461 133.878 C 114.041 133.998 113.622 134.118 113.262 134.358 C 112.803 134.698 112.269 134.924 111.704 135.017 C 110.925 135.256 110.026 135.376 109.367 135.916 C 109.187 136.036 108.887 136.036 108.648 136.036 C 107.808 136.036 106.969 135.976 106.25 136.455 L 106.07 136.515 C 104.632 136.575 103.134 136.755 101.755 137.175 C 101.515 137.414 101.456 137.355 101.276 137.235 Z M 125.369 79.937 C 124.949 80.178 123.691 80.237 123.87 79.039 C 124.17 78.679 124.77 78.32 125.489 78.02 C 126.687 77.301 127.347 76.701 128.666 76.222 L 128.725 76.162 C 129.324 75.683 129.864 75.203 130.583 74.904 C 131.003 74.724 131.303 74.364 131.782 74.184 C 132.321 73.945 132.321 73.585 131.962 73.045 L 131.362 72.027 C 131.243 71.727 130.763 71.667 130.823 71.187 C 130.883 70.708 130.344 70.648 130.164 70.288 L 130.104 70.229 C 129.145 68.37 127.467 67.112 126.268 65.374 C 125.969 64.954 125.489 64.715 125.129 64.415 L 123.931 65.374 L 123.571 65.733 L 121.474 68.071 C 121.174 68.431 120.695 68.67 120.395 69.09 C 119.795 69.809 118.716 70.828 117.937 71.787 L 117.398 72.146 C 117.099 72.326 116.678 72.207 116.379 71.907 C 116.199 71.727 116.14 71.247 116.379 71.008 C 116.982 70.257 117.622 69.537 118.297 68.85 L 119.616 67.532 C 120.454 66.692 121.353 65.913 122.013 64.835 C 122.312 64.355 122.732 63.995 123.152 63.576 C 123.451 63.216 123.391 62.916 123.032 62.677 L 122.553 62.437 C 121.593 61.658 120.574 60.999 119.556 60.279 C 118.237 59.261 116.678 58.541 115.18 57.822 C 114.581 57.582 114.041 57.283 113.442 57.103 C 112.663 56.803 112.603 56.863 112.244 57.523 L 111.824 58.482 L 110.146 62.497 L 109.427 64.055 L 108.947 65.314 C 108.588 66.273 108.828 66.273 108.288 67.172 C 108.108 67.412 108.049 67.651 107.628 67.712 C 107.029 67.771 106.849 67.771 106.79 67.232 C 106.773 66.664 106.919 66.102 107.209 65.614 C 107.628 64.595 107.628 64.475 107.689 64.175 C 107.988 63.157 108.468 62.317 108.947 61.358 C 109.323 60.659 109.606 59.914 109.786 59.141 C 109.966 58.362 110.386 57.703 110.686 56.924 L 110.745 56.503 C 110.745 56.264 110.745 56.144 110.445 56.024 L 108.588 55.605 C 107.569 55.365 106.61 55.005 105.531 55.125 C 104.992 55.185 104.453 54.886 103.853 54.766 C 102.834 54.586 101.875 54.107 100.796 54.226 C 100.257 54.287 100.017 54.406 99.957 54.825 C 99.778 55.545 99.538 56.264 99.538 56.983 C 99.598 58.362 99.238 59.741 99.298 61.119 C 99.298 61.898 99.418 62.677 99.238 63.456 C 99.118 63.936 98.938 64.595 98.878 65.614 C 98.998 66.033 98.819 66.273 98.639 66.573 C 98.399 66.992 97.799 66.872 97.619 66.393 C 97.5 66.153 97.44 65.854 97.44 65.553 C 97.44 64.535 97.68 63.816 97.68 63.456 L 97.619 62.078 C 97.56 61.538 97.619 60.879 97.68 60.22 L 97.74 58.541 L 97.799 57.883 C 97.979 56.803 98.219 55.785 98.159 54.706 C 98.159 54.346 97.979 54.287 97.68 54.287 C 96.241 54.406 94.803 54.166 93.305 54.466 C 92.525 54.646 91.746 54.526 90.967 54.706 C 90.068 54.945 89.049 55.005 88.15 55.185 L 87.011 55.425 C 86.592 55.545 86.173 55.605 85.813 55.785 C 85.153 56.024 85.034 56.264 85.273 56.924 C 85.573 57.762 85.633 58.662 86.173 59.381 L 86.292 59.68 L 87.371 63.636 L 87.551 64.475 L 88.45 66.872 C 88.69 67.471 88.45 68.131 87.851 68.311 C 87.491 68.431 87.252 68.251 87.011 67.891 C 86.472 67.172 86.532 66.573 86.173 65.614 C 85.813 64.715 85.633 63.756 85.453 62.857 L 84.794 60.16 C 85.034 59.8 84.075 59.92 84.554 59.441 L 83.655 56.803 C 83.595 56.624 83.296 56.444 83.176 56.444 C 82.876 56.503 82.577 56.624 82.337 56.803 L 80.419 58.242 C 80.059 58.482 79.58 58.721 79.16 58.841 C 78.74 58.901 78.321 59.081 78.022 59.381 L 76.344 60.639 L 74.606 61.898 L 73.287 63.037 C 73.107 63.157 73.167 63.276 73.287 63.396 L 75.684 66.033 C 76.103 66.573 76.403 67.172 76.883 67.651 C 78.261 68.97 78.561 69.329 79.819 70.768 C 80.119 71.128 80.059 71.966 79.639 72.266 C 79.28 72.506 78.561 72.386 78.321 71.966 C 77.662 71.008 77.961 71.247 77.243 70.349 L 76.583 69.689 C 76.103 69.149 75.504 68.79 75.144 68.191 C 74.845 67.712 74.606 67.172 74.185 66.753 C 73.467 66.033 72.867 65.194 72.088 64.595 C 71.848 64.415 71.728 64.355 71.429 64.595 C 70.589 65.374 69.751 66.093 69.031 66.933 C 68.132 67.951 67.234 68.97 66.454 70.108 C 66.274 70.349 65.915 70.529 65.855 70.768 C 65.795 71.068 65.615 71.308 65.435 71.487 C 64.836 72.146 64.597 73.045 63.937 73.704 C 63.817 73.825 63.817 74.125 63.877 74.304 C 63.877 74.424 64.177 74.424 64.297 74.484 C 64.716 74.724 65.256 74.783 65.556 75.203 C 65.675 75.383 65.915 75.443 66.094 75.503 L 69.99 77.42 C 70.65 77.721 70.29 77.9 71.069 78.02 C 71.609 78.08 72.028 78.5 72.208 79.099 C 72.268 79.399 72.148 79.937 71.848 79.937 C 71.489 79.998 71.189 80.297 70.769 79.998 C 70.41 79.698 68.792 78.799 68.013 78.44 L 65.376 77.061 L 63.397 76.042 C 63.038 75.803 62.739 75.922 62.559 76.282 L 61.12 79.099 L 60.102 81.556 C 59.742 82.455 59.262 83.354 59.322 84.433 C 59.322 84.673 59.202 84.972 59.082 85.212 C 58.843 85.812 58.663 86.35 58.663 86.95 C 58.663 87.19 58.783 87.25 58.963 87.25 C 59.502 87.25 60.102 87.13 60.581 87.31 C 61.539 87.669 62.498 87.489 63.397 87.729 C 64.177 87.909 65.735 87.969 66.514 87.969 C 66.814 87.969 67.054 88.089 67.413 88.029 C 67.653 87.969 67.833 88.568 68.073 88.868 L 68.193 89.048 L 68.132 89.228 C 67.893 89.467 67.713 89.707 67.413 89.887 C 67.173 90.067 66.934 89.887 66.694 89.767 L 66.394 89.767 C 65.376 89.707 63.577 89.408 62.559 89.408 C 61.42 89.408 60.341 89.228 59.262 89.108 C 58.902 89.048 58.543 88.928 58.243 88.987 C 57.764 89.108 58.064 89.707 57.824 90.067 C 57.404 90.786 57.524 91.685 57.285 92.464 C 57.224 92.704 57.224 93.063 57.344 93.303 C 57.644 93.723 57.164 94.202 57.464 94.621 L 57.464 94.921 C 57.164 95.4 57.285 95.88 57.285 96.42 C 57.285 97.618 57.164 98.877 57.464 100.135 C 57.524 100.555 57.584 100.735 58.064 100.675 L 59.922 100.315 C 61.12 100.135 62.259 100.016 63.397 99.716 C 64.656 99.356 66.035 99.417 67.293 99.176 C 67.713 99.117 67.952 99.356 68.073 99.716 C 68.193 100.135 67.833 100.735 67.413 100.675 C 66.814 100.615 66.214 100.854 65.615 100.915 C 64.716 100.975 63.937 101.214 63.098 101.394 L 61.48 101.813 L 58.783 102.473 C 57.943 102.713 57.884 102.833 57.943 103.671 L 57.943 103.911 C 58.184 104.271 58.483 104.63 58.364 105.11 C 58.184 105.65 58.722 105.949 58.843 106.368 C 58.963 106.968 59.262 107.567 59.502 108.167 L 60.76 111.403 C 61.06 112.362 61.66 113.081 62.199 113.86 C 62.259 113.98 62.559 113.98 62.678 113.92 C 62.978 113.741 63.278 113.441 63.577 113.321 C 64.237 113.081 64.776 112.721 65.376 112.482 C 66.155 112.182 66.874 111.583 67.653 111.104 C 69.031 110.264 70.11 109.785 71.548 109.066 C 71.908 108.886 72.148 109.005 72.448 109.066 L 72.807 109.185 C 72.987 109.485 72.748 110.205 72.448 110.444 L 72.088 110.624 C 71.129 110.924 70.71 111.343 69.87 111.822 C 69.331 112.122 68.852 112.542 68.312 112.721 C 67.533 112.961 66.874 113.381 66.274 113.801 L 64.356 114.819 C 64.057 114.939 63.757 115.238 63.458 115.418 C 63.397 115.479 63.338 115.659 63.397 115.718 L 63.997 116.797 C 64.237 117.276 64.776 117.636 64.716 118.296 C 64.716 118.476 64.896 118.775 65.076 118.955 C 65.795 119.794 66.335 120.753 67.114 121.532 C 67.952 122.371 68.612 123.45 69.391 124.409 C 69.751 124.888 70.29 124.948 70.65 124.468 C 71.069 123.93 71.609 123.57 72.028 123.09 C 73.706 121.352 75.385 119.674 76.943 117.936 C 77.542 117.276 77.602 117.517 78.022 116.677 C 78.141 116.378 78.441 116.198 78.681 115.958 C 78.981 115.718 79.639 115.718 79.879 115.958 C 80.179 116.258 80.119 116.677 79.76 117.096 C 78.92 117.996 78.801 117.996 78.022 118.895 L 77.722 119.194 C 77.182 119.794 76.943 120.692 76.103 120.992 C 75.984 121.052 75.984 121.232 75.864 121.352 L 75.264 121.951 L 74.665 122.431 L 73.527 123.75 C 72.878 124.458 72.198 125.138 71.489 125.787 C 71.189 126.027 71.309 126.207 71.548 126.387 L 73.107 127.526 C 73.586 128.005 74.066 128.364 74.665 128.604 L 75.744 129.264 L 76.103 129.503 L 77.961 130.462 L 79.76 131.541 C 80.539 132.08 81.498 132.38 82.337 132.799 C 82.636 132.919 82.936 132.799 83.056 132.559 C 83.235 132.14 83.476 131.721 83.535 131.301 C 83.595 130.582 83.955 130.043 84.194 129.383 C 84.374 128.904 84.674 128.544 84.674 127.945 C 84.674 127.585 84.973 127.226 85.094 126.866 L 86.232 123.989 C 86.652 122.97 86.352 123.27 86.831 122.251 C 87.072 121.712 87.131 121.712 87.191 121.113 C 87.289 120.612 87.594 120.176 88.031 119.913 C 88.57 119.614 89.169 119.913 89.109 120.513 C 89.109 120.753 88.99 120.992 88.869 121.232 C 87.911 123.21 88.211 123.509 87.252 125.488 C 87.252 126.267 86.831 126.806 86.592 127.465 C 86.352 128.184 86.173 128.904 85.813 129.563 C 85.333 130.522 84.973 131.601 84.674 132.62 L 84.615 133.159 C 84.554 133.579 84.674 133.878 85.153 133.939 C 86.113 134.118 87.011 134.718 88.031 134.597 C 88.45 134.538 88.929 134.777 89.349 134.897 C 90.427 135.197 91.506 135.616 92.705 135.497 L 92.945 135.497 C 93.784 135.916 94.683 135.676 95.522 135.676 C 96.122 135.676 96.241 135.556 96.241 134.897 L 96.241 133.339 C 96.301 132.38 96.061 131.481 96.421 130.522 C 96.481 130.402 96.421 130.163 96.361 129.983 C 96.182 129.623 96.241 129.323 96.361 128.963 C 96.481 128.664 96.122 128.244 96.241 127.945 C 96.481 127.405 96.421 126.866 96.421 126.326 L 96.421 124.529 L 96.601 122.491 L 96.601 121.712 C 96.541 121.293 96.781 121.172 97.14 121.232 L 97.38 121.232 C 98.04 121.232 98.219 121.352 98.219 122.072 C 98.159 123.03 97.919 123.93 98.04 124.349 C 98.219 125.008 98.159 125.727 98.099 126.447 C 98.04 127.166 97.86 127.945 98.219 128.724 L 98.219 129.143 C 97.919 129.443 98.04 129.863 98.04 130.222 L 98.04 135.317 C 98.04 135.616 98.159 135.676 98.399 135.676 C 98.998 135.676 99.657 135.796 100.257 135.616 C 100.916 135.436 101.575 135.497 102.235 135.256 C 102.894 135.017 103.613 134.897 104.332 135.017 L 104.453 135.017 C 105.171 134.657 106.011 134.777 106.73 134.597 C 107.808 134.418 108.828 134.178 109.786 133.698 C 110.445 133.399 110.445 133.339 110.146 132.739 C 110.086 132.559 109.907 132.38 109.907 132.14 C 109.666 130.642 109.007 129.264 108.588 127.825 C 108.228 126.566 107.689 125.368 107.329 124.109 L 106.37 121.472 L 106.37 121.172 C 106.31 120.753 106.55 120.513 106.849 120.213 C 107.149 119.913 107.269 120.333 107.509 120.333 C 107.869 120.333 108.108 120.453 108.168 120.813 C 108.228 121.293 108.468 122.131 108.707 122.73 C 109.547 124.109 108.947 124.288 109.907 125.607 L 109.966 125.787 C 110.146 127.046 110.805 128.125 111.045 129.323 C 111.105 129.863 111.344 130.342 111.524 130.822 L 112.124 132.38 C 112.364 132.859 112.483 132.739 112.843 132.68 C 113.742 132.44 114.581 131.96 115.48 131.601 C 116.02 131.361 116.499 131.122 116.978 130.762 C 117.398 130.402 117.878 130.163 118.357 129.922 C 119.736 129.084 120.994 128.184 122.253 127.166 C 122.672 126.806 122.672 126.746 122.373 126.326 L 121.413 125.128 L 120.874 124.468 C 119.916 123.27 119.196 121.951 118.117 120.872 C 117.353 120.166 116.688 119.36 116.14 118.476 C 116.079 118.055 115.78 117.996 115.54 117.576 C 115.414 117.327 115.314 117.066 115.24 116.797 C 115.18 116.557 115.3 116.438 115.54 116.317 C 116.499 115.778 117.099 116.378 117.458 117.096 C 117.757 117.636 117.757 117.876 118.177 118.355 C 118.956 119.314 119.256 119.314 119.916 120.393 L 120.574 121.232 L 122.373 123.33 C 122.612 123.57 122.972 123.809 123.032 124.109 C 123.091 124.888 123.931 124.948 124.23 125.368 L 124.53 125.368 L 126.448 123.63 L 126.928 123.15 C 127.887 122.311 128.725 121.352 129.504 120.393 L 131.662 117.337 C 131.842 117.096 131.962 116.857 132.022 116.557 C 132.082 116.317 132.082 116.138 131.782 115.958 C 130.943 115.479 130.344 114.58 129.265 114.4 C 128.965 113.741 128.246 113.68 127.766 113.381 L 126.748 112.602 L 125.549 112.002 C 125.07 111.763 123.811 111.043 123.391 110.564 C 123.032 110.205 123.091 109.785 123.391 109.426 C 123.691 109.125 124.17 109.066 124.53 109.305 L 125.969 110.025 C 126.568 110.624 127.527 110.624 128.006 111.343 C 128.965 111.583 129.684 112.182 130.463 112.721 C 130.643 112.842 130.883 113.021 131.123 113.081 C 131.842 113.261 132.441 113.741 133.041 114.22 C 133.4 114.52 133.52 114.28 133.58 114.1 L 134.899 111.163 L 136.397 107.567 L 136.696 106.548 C 136.816 105.53 137.296 104.63 137.176 103.612 L 137.296 103.432 C 137.416 103.132 137.236 102.772 136.996 102.772 C 136.217 102.772 135.498 102.653 134.719 102.533 C 134.059 102.413 133.28 102.533 132.681 102.293 C 131.483 101.813 130.224 101.813 129.085 101.454 C 128.606 101.275 128.126 101.095 127.887 100.615 C 127.766 100.315 127.646 100.075 127.826 99.716 C 128.006 99.417 128.246 99.417 128.426 99.476 L 131.422 100.075 C 132.861 100.375 134.239 100.795 135.737 100.795 C 136.158 100.795 136.577 100.735 136.996 100.975 C 137.356 101.154 137.656 100.854 137.716 100.435 L 137.716 99.237 C 137.716 98.817 137.955 98.338 137.835 98.038 C 137.595 97.559 138.015 97.319 137.955 96.899 C 137.775 95.7 138.135 94.442 137.716 93.183 C 137.595 92.704 137.476 92.104 137.536 91.625 C 137.536 91.086 137.416 90.606 137.476 90.067 C 137.536 89.467 137.236 89.167 136.577 89.347 L 134.778 89.588 C 133.999 89.707 133.22 89.707 132.441 89.887 C 131.662 90.067 129.924 90.246 129.565 90.306 C 128.905 90.486 128.306 90.246 128.006 89.707 L 127.946 89.527 C 128.006 89.048 128.426 88.629 128.905 88.688 C 130.164 88.868 130.943 88.208 132.202 88.269 C 132.621 87.909 133.161 88.208 133.58 88.029 C 134.059 87.849 134.539 87.849 135.078 87.849 L 136.577 87.609 C 136.937 87.55 137.236 87.13 137.236 86.71 C 137.236 86.411 137.236 86.111 137.116 85.871 C 136.937 85.332 137.056 84.733 136.577 84.313 C 136.577 83.354 136.158 82.455 135.917 81.556 C 135.737 80.777 135.618 79.998 135.198 79.219 C 134.719 78.379 134.179 77.6 133.94 76.701 C 133.88 76.402 133.58 76.162 133.4 75.922 C 133.341 75.862 133.22 75.803 133.161 75.862 L 129.864 77.6 C 129.684 78.14 129.025 78.08 128.666 78.379 C 128.246 78.679 127.887 79.099 127.347 79.279 L 125.369 79.937 Z" style="stroke: none; stroke-width: 1; stroke-dasharray: none; stroke-linecap: butt; stroke-dashoffset: 0; stroke-linejoin: miter; stroke-miterlimit: 4; fill: rgb(0, 186, 238); fill-rule: nonzero; opacity: 1;"/>
  <path d="M 77.243 102.293 C 77.243 101.034 78.321 100.255 79.4 100.555 C 80.27 100.793 81.019 101.349 81.498 102.113 C 82.157 103.013 82.996 103.792 83.895 104.511 C 84.255 104.81 84.794 104.99 85.094 105.47 C 85.394 105.889 85.993 105.949 86.412 106.309 C 86.772 106.609 87.072 106.908 87.431 107.088 L 88.749 107.927 C 89.169 108.167 89.589 108.467 90.068 108.646 C 90.548 108.886 91.027 109.005 91.566 109.185 C 92.286 109.426 93.005 109.545 93.665 109.845 C 93.964 109.965 94.144 109.605 94.444 109.845 C 94.563 109.965 94.923 109.905 95.162 109.965 C 95.402 110.025 95.762 110.144 95.942 110.025 C 96.301 109.785 96.481 110.205 96.721 110.144 C 97.261 110.025 97.86 110.264 98.459 109.965 C 98.758 110.264 99.118 109.725 99.418 109.965 C 99.718 110.205 99.957 109.845 100.317 109.905 C 101.156 109.965 101.935 109.725 102.654 109.305 C 103.04 109.068 103.467 108.905 103.913 108.826 C 104.931 108.669 105.885 108.233 106.669 107.567 C 108.168 106.429 109.727 105.35 110.985 103.971 L 112.184 102.533 C 112.963 101.634 113.861 101.034 115.12 101.034 C 115.36 101.034 115.48 101.095 115.6 101.334 C 115.66 101.514 115.84 101.694 116.02 101.813 C 116.439 102.113 116.499 102.533 116.379 103.013 C 116.113 104.315 115.49 105.519 114.581 106.488 C 114.341 106.788 113.922 106.968 113.922 107.447 L 113.802 107.627 C 112.963 107.987 112.424 108.646 111.764 109.185 L 110.686 110.084 C 109.966 110.744 109.007 110.984 108.228 111.523 C 107.808 111.822 107.389 112.122 106.91 112.302 L 105.411 112.781 C 104.453 112.961 103.613 113.381 102.594 113.441 C 102.235 113.441 101.935 113.621 101.575 113.741 C 101.096 113.92 100.616 114.16 100.017 114.1 L 99.538 114.22 C 99.238 114.52 98.819 114.22 98.519 114.4 C 98.099 114.58 97.799 114.459 97.38 114.34 L 96.721 114.34 C 95.762 114.28 94.863 114.28 93.904 114.1 C 93.244 113.98 92.645 113.68 91.986 113.441 L 89.828 112.662 C 89.349 112.542 88.929 112.302 88.39 112.302 C 87.671 112.302 87.131 111.822 86.532 111.523 C 86.173 111.284 85.813 111.043 85.394 110.984 C 85.034 110.924 84.734 110.744 84.435 110.504 L 81.917 108.706 C 79.953 107.197 78.372 105.246 77.302 103.013 C 77.362 102.772 77.302 102.413 77.243 102.293 Z" style="stroke: none; stroke-width: 1; stroke-dasharray: none; stroke-linecap: butt; stroke-dashoffset: 0; stroke-linejoin: miter; stroke-miterlimit: 4; fill: rgb(0, 0, 0); fill-rule: nonzero; opacity: 1;"/>
  <path d="M 99.898 97.139 L 101.336 97.438 C 101.935 97.559 102.235 97.918 102.415 98.517 L 102.474 98.697 C 103.073 99.896 102.654 100.915 101.815 101.874 L 99.477 104.511 C 99.058 104.99 98.819 104.99 98.339 104.63 C 97.919 104.331 97.86 103.851 97.74 103.492 C 97.619 103.132 98.099 102.772 98.399 102.533 C 99.118 101.934 99.718 101.275 100.197 100.555 L 100.436 100.075 C 100.497 99.836 100.557 99.536 100.436 99.356 C 100.257 99.117 100.017 99.296 99.778 99.356 L 98.639 99.656 L 98.339 99.776 C 97.439 100.587 96.404 101.236 95.282 101.694 L 94.683 101.874 C 94.144 101.934 94.023 101.813 93.784 101.154 C 93.604 100.735 93.665 100.555 94.144 100.255 L 96.961 98.338 C 97.081 98.278 97.261 98.217 97.32 98.098 C 98.031 97.47 98.949 97.129 99.898 97.139 Z" style="stroke: none; stroke-width: 1; stroke-dasharray: none; stroke-linecap: butt; stroke-dashoffset: 0; stroke-linejoin: miter; stroke-miterlimit: 4; fill: rgb(0, 0, 0); fill-rule: nonzero; opacity: 1;"/>
  <path d="M 84.973 98.158 C 83.87 98.193 82.77 98.009 81.737 97.618 L 79.7 96.779 C 79.16 96.6 78.74 96.18 78.321 95.821 C 77.602 95.221 77.063 94.442 76.523 93.603 L 75.804 92.704 C 75.064 91.772 74.607 90.65 74.485 89.467 C 74.426 88.987 74.426 88.508 74.246 88.149 C 73.886 87.609 74.306 86.95 73.886 86.471 C 74.246 85.571 73.886 84.673 74.126 83.774 C 74.426 82.815 74.905 81.975 75.385 81.077 C 75.744 80.417 76.223 79.818 76.643 79.158 C 77.123 78.5 77.722 77.96 78.441 77.541 L 80.299 76.341 L 80.359 76.282 C 80.598 75.983 80.898 75.803 81.318 75.862 L 81.618 75.742 C 82.217 75.742 82.516 75.143 83.176 75.143 C 83.715 75.203 84.255 74.844 84.794 74.783 C 85.813 74.664 86.892 74.783 87.911 75.083 C 88.802 75.32 89.683 75.601 90.548 75.922 L 92.106 76.821 C 92.674 77.251 93.161 77.778 93.544 78.379 L 94.203 79.338 L 94.923 80.717 C 95.223 81.256 95.522 81.796 95.882 82.216 C 96.421 82.934 96.481 83.774 96.781 84.553 L 96.84 84.972 C 97.02 85.212 97.2 85.632 97.44 85.692 C 97.799 85.751 97.799 85.272 97.919 84.972 L 98.279 84.193 L 98.579 83.654 C 98.399 82.635 99.298 82.096 99.598 81.256 C 99.92 80.414 100.483 79.684 101.216 79.158 C 101.575 78.859 101.755 78.379 102.294 78.2 C 102.654 78.08 102.894 77.6 103.253 77.361 C 104.453 76.582 105.771 75.983 107.149 75.503 C 107.808 75.683 108.348 75.443 108.947 75.263 C 109.846 75.623 110.805 74.963 111.704 75.443 C 111.944 75.562 112.364 75.443 112.663 75.443 C 113.442 75.503 114.221 75.623 114.881 76.162 C 115.42 76.521 115.96 76.821 116.439 77.241 C 116.799 77.541 116.978 78.08 117.398 78.2 C 117.878 78.379 118.237 78.62 118.536 78.979 C 118.956 79.399 119.076 80.058 119.495 80.477 C 119.795 80.837 120.215 81.316 120.035 81.975 C 119.975 82.155 120.274 82.455 120.395 82.695 C 120.515 82.995 120.814 83.234 120.515 83.594 L 120.454 83.654 C 121.114 84.193 120.634 84.972 120.994 85.571 C 121.234 85.992 120.994 86.411 121.294 86.83 C 121.533 87.13 121.114 87.609 121.353 88.029 L 121.353 88.269 C 120.814 89.167 120.874 90.246 120.454 91.205 C 120.215 91.804 119.795 92.344 119.436 92.943 L 118.956 93.663 C 118.274 94.895 117.283 95.928 116.079 96.659 C 115.3 97.139 114.221 97.199 113.562 97.918 L 111.645 98.158 C 110.745 98.278 109.846 97.978 108.947 98.338 C 108.228 97.918 107.389 98.458 106.669 97.978 L 106.131 97.978 C 105.831 97.978 105.531 97.978 105.351 97.678 C 105.269 97.605 105.163 97.563 105.052 97.559 C 104.032 97.379 103.073 97.019 102.415 96.6 C 101.216 95.7 100.137 94.621 99.178 93.363 C 99.046 93.15 98.925 92.931 98.819 92.704 C 98.639 92.344 98.459 92.045 98.339 91.625 C 98.099 91.025 97.86 90.426 97.74 89.827 L 97.5 88.149 C 97.5 88.029 97.38 87.969 97.261 87.849 C 97.2 87.969 97.02 88.089 97.081 88.149 C 97.44 88.688 97.081 89.108 96.84 89.588 L 95.582 92.284 C 95.342 92.763 95.043 93.183 94.683 93.603 C 93.604 94.801 92.406 95.94 91.027 96.839 C 90.308 97.319 89.409 97.559 88.57 97.738 C 87.311 97.978 86.113 98.397 84.973 98.158" style="stroke: none; stroke-width: 1; stroke-dasharray: none; stroke-linecap: butt; stroke-dashoffset: 0; stroke-linejoin: miter; stroke-miterlimit: 4; fill: rgb(0, 0, 0); fill-rule: nonzero; opacity: 1;"/>
  <path d="M 81.857 95.521 L 78.981 93.902 C 78.621 93.663 78.441 93.243 78.202 92.943 C 78.081 92.763 78.202 92.644 78.381 92.524 C 78.86 92.284 79.28 91.925 79.76 91.745 C 80.839 91.325 81.677 90.546 82.816 90.246 C 83.655 90.067 84.194 89.287 84.914 88.748 C 85.034 88.688 85.094 88.449 85.094 88.269 C 84.973 87.669 84.973 86.95 84.194 86.65 C 84.015 86.591 83.895 86.231 83.775 86.051 L 82.936 85.092 C 82.636 84.792 82.397 84.373 81.977 84.193 C 81.618 84.013 81.498 83.534 81.078 83.414 C 80.898 83.354 80.778 83.054 80.539 82.875 C 80.239 82.695 80.359 82.396 80.479 82.335 C 81.078 81.975 81.377 81.316 82.157 81.077 C 82.756 80.897 83.235 80.237 83.775 79.758 C 83.895 79.638 84.015 79.399 84.135 79.399 C 84.734 79.399 84.914 78.739 85.453 78.559 C 85.933 78.379 86.532 78.14 86.831 77.721 C 87.252 77.061 87.851 77.241 88.33 77.301 C 88.81 77.301 89.289 77.541 89.648 77.78 L 91.506 78.979 C 92.106 79.338 92.586 79.937 93.125 80.477 C 93.185 80.537 93.244 80.777 93.185 80.837 C 93.065 81.077 92.885 81.376 92.705 81.496 C 92.046 81.856 91.627 82.695 90.727 82.695 L 88.09 84.553 L 87.131 85.212 L 86.113 86.231 C 85.993 86.35 86.052 86.591 86.052 86.771 C 86.113 87.729 86.712 88.388 87.491 88.928 C 87.79 89.108 88.09 89.167 88.211 89.527 L 88.45 89.767 C 89.169 89.887 89.469 90.546 90.008 90.906 C 90.308 91.086 90.668 91.505 90.668 91.804 C 90.668 92.104 90.188 92.404 89.889 92.644 L 87.072 94.322 L 84.794 95.76 C 84.554 95.88 84.315 96.18 84.075 96.18 C 83.595 96.18 83.235 96.3 82.756 96.18 C 82.456 96.12 82.277 95.88 82.037 95.821 C 82.037 95.58 81.857 95.461 81.857 95.521 M 105.951 95.521 L 103.073 93.902 C 102.714 93.663 102.534 93.243 102.294 92.943 C 102.175 92.763 102.294 92.644 102.474 92.524 C 102.954 92.284 103.373 91.925 103.853 91.745 C 104.932 91.325 105.771 90.546 106.91 90.246 C 107.749 90.067 108.288 89.287 109.007 88.748 C 109.127 88.688 109.187 88.449 109.187 88.269 C 109.067 87.669 109.067 86.95 108.288 86.65 C 108.108 86.591 107.988 86.231 107.869 86.051 L 107.029 85.092 C 106.73 84.792 106.49 84.373 106.07 84.193 C 105.711 84.013 105.591 83.534 105.171 83.414 C 104.992 83.354 104.872 83.054 104.632 82.875 C 104.332 82.695 104.453 82.396 104.572 82.335 C 105.171 81.975 105.471 81.316 106.25 81.077 C 106.849 80.897 107.329 80.237 107.869 79.758 C 107.988 79.638 108.108 79.399 108.228 79.399 C 108.828 79.399 109.007 78.739 109.547 78.559 C 110.026 78.379 110.625 78.14 110.925 77.721 C 111.344 77.061 111.944 77.241 112.424 77.301 C 112.903 77.301 113.382 77.541 113.742 77.78 L 115.6 78.979 C 116.199 79.338 116.678 79.937 117.218 80.477 C 117.278 80.537 117.338 80.777 117.278 80.837 C 117.158 81.077 116.978 81.376 116.799 81.496 C 116.14 81.856 115.72 82.695 114.821 82.695 L 112.184 84.553 L 111.225 85.212 L 110.206 86.231 C 110.086 86.35 110.146 86.591 110.146 86.771 C 110.206 87.729 110.805 88.388 111.584 88.928 C 111.884 89.108 112.184 89.167 112.303 89.527 L 112.544 89.767 C 113.262 89.887 113.562 90.546 114.102 90.906 C 114.401 91.086 114.761 91.505 114.761 91.804 C 114.761 92.104 114.282 92.404 113.982 92.644 L 111.165 94.322 L 108.887 95.76 C 108.648 95.88 108.408 96.18 108.168 96.18 C 107.689 96.18 107.329 96.3 106.849 96.18 C 106.55 96.12 106.37 95.88 106.131 95.821 C 106.131 95.58 105.951 95.461 105.951 95.521" style="stroke: none; stroke-width: 1; stroke-dasharray: none; stroke-linecap: butt; stroke-dashoffset: 0; stroke-linejoin: miter; stroke-miterlimit: 4; fill: rgb(255, 255, 255); fill-rule: nonzero; opacity: 1;"/>
</svg>