<svg width="49" height="28" viewBox="0 0 49 28" fill="none" xmlns="http://www.w3.org/2000/svg">
<g clip-path="url(#clip0_1_38)">
<path d="M34.864 24.3255L4.57101 27.7765C3.45601 27.9035 2.45001 27.1035 2.32301 25.9885L0.0130089 5.71346C-0.113991 4.59846 0.686011 3.59246 1.80101 3.46546L32.094 0.0134583C33.209 -0.113542 34.215 0.687458 34.342 1.80246L36.652 22.0775C36.779 23.1925 35.979 24.1985 34.864 24.3255Z" fill="#32CBF5"/>
<path d="M11.1002 11.45L5.09425 12.134C4.44625 12.208 3.86025 11.743 3.78725 11.095L3.41825 7.86295C3.34525 7.21495 3.81025 6.62895 4.45825 6.55495L10.4642 5.87095C11.1122 5.79695 11.6982 6.26295 11.7722 6.91095L12.1402 10.143C12.2142 10.791 11.7482 11.376 11.1002 11.45Z" fill="white"/>
<path d="M27.2605 16.0502L32.7335 15.4262M5.10748 22.6862L7.37648 22.4282L5.10748 22.6862ZM10.5805 22.0622L19.2565 21.0742L10.5805 22.0622ZM4.64548 18.6272L10.1175 18.0032L4.64548 18.6272ZM12.1835 17.7682L17.6565 17.1442L12.1835 17.7682ZM19.7225 16.9092L25.1945 16.2852L19.7225 16.9092Z" stroke="white" stroke-width="1.312" stroke-miterlimit="10" stroke-linecap="round" stroke-linejoin="round"/>
<path d="M47.0778 9.70215L43.2118 10.2782C42.4368 10.3942 41.7958 11.1872 41.9508 11.9822C42.1058 12.7802 42.8238 13.3682 43.6548 13.2442L47.5198 12.6682C48.2958 12.5522 48.9368 11.7592 48.7818 10.9642C48.6268 10.1662 47.9098 9.57815 47.0778 9.70215Z" fill="#32CBF5"/>
<path d="M43.7831 0.454354C42.7091 1.19235 41.6351 1.92935 40.5621 2.66635C39.9151 3.11035 39.6861 4.10435 40.1741 4.75135C40.6641 5.40035 41.5671 5.61435 42.2591 5.13835C43.3331 4.40135 44.4071 3.66435 45.4811 2.92635C46.1271 2.48235 46.3561 1.48835 45.8681 0.841354C45.3781 0.192354 44.4761 -0.0216457 43.7831 0.454354Z" fill="#32CBF5"/>
<path d="M45.8293 22.7689C44.6643 22.1869 43.4983 21.6049 42.3323 21.0239C41.6313 20.6739 41.2673 19.7219 41.6603 19.0129C42.0563 18.3029 42.9203 17.9659 43.6723 18.3409C44.8373 18.9219 46.0033 19.5039 47.1683 20.0859C47.8703 20.4359 48.2343 21.3889 47.8403 22.0969C47.4453 22.8079 46.5813 23.1439 45.8293 22.7689Z" fill="#32CBF5"/>
</g>
<defs>
<clipPath id="clip0_1_38">
<rect width="48.805" height="27.789" fill="white"/>
</clipPath>
</defs>
</svg>
