<svg width="70" height="50" fill="none" xmlns="http://www.w3.org/2000/svg"><g clip-path="url(#a)"><path d="M4.8 45.5c-.2-.7.2-1.3.8-1.3.6 0 1 .1 1.5.5s1 .6 1.7.9l.8.3c.2.2.6.1.9.2.2.1.4.3.7.3l.8.2a7 7 0 0 0 1.8.3H15c.2 0 .3-.3.5-.2h.4l.4-.1c.2-.2.3 0 .5 0l.9-.4c.2 0 .3-.3.5-.2.2.1.3-.2.5-.2.5 0 .8-.4 1.2-.7l.6-.5c.6-.2 1-.7 1.3-1.1.7-.9 1.3-1.7 1.8-2.7l.4-1c.3-.6.6-1.1 1.3-1.3l.3.1.4.2c.3 0 .4.3.4.6 0 .7 0 1.5-.4 2.2-.1.2-.3.3-.2.6v.1c-.4.3-.6.8-.9 1.2l-.4.7c-.3.5-.8.8-1.1 1.2l-.6.6-.8.5c-.5.3-.9.7-1.4.9-.2 0-.3.2-.5.3-.2.2-.5.4-.8.4l-.2.2-.6.3c-.2.2-.4.2-.6.1l-.4.1-1.5.4h-1.2l-1.3-.1h-.9c-.3.1-.7 0-1-.1l-.8-.1-.6-.1-1.7-.6A9 9 0 0 1 5 46l-.2-.4Z" fill="#FF9428"/><path d="m16.3 38.9.8-.1c.4 0 .6.1.8.4.6.7.5 1.3.2 2l-.8 1.8c-.1.3-.3.3-.6.2-.3 0-.4-.3-.5-.5-.1-.2 0-.5.2-.7l.7-1.4V40c-.2 0-.3 0-.4.2l-.6.3-.1.1a6 6 0 0 1-1.4 1.6l-.3.2c-.3.1-.4 0-.6-.2-.2-.2-.2-.3 0-.6l1.2-1.5.2-.2c.3-.5.6-.8 1.2-1Z" fill="#FF9428"/><path d="M8.3 42c-.6.2-1.2.2-1.8.2L5.2 42l-1-.3a5 5 0 0 1-1.3-1l-.5-.3c-.6-.4-1-1-1.2-1.5-.1-.3-.2-.6-.4-.7-.3-.3-.2-.7-.5-.9L0 36l.2-1.7.4-1.2c.1-.5.4-.8.7-1.2l.8-1c.1-.2.3-.4.5-.4l.1-.1c.4-.1.4-.5.8-.6.3 0 .5-.4.8-.5a5 5 0 0 1 1.8-.3h1.5l1 .2c.4.1.8.4 1 .6l.6.4.6.7.8.6c.5.3.6.8.9 1.2l.1.2.4.3c.2 0 .2-.3.2-.5v-.8c-.2-.5.2-1 .2-1.5s.3-1 .6-1.4c.1-.3.1-.5.4-.7l.4-.7c.5-.6 1.1-1.1 1.8-1.6.3 0 .6-.3 1-.5.5 0 .9-.4 1.5-.3l.5-.2h1.3l1 .4c.3 0 .5.3.7.3.3 0 .6.2.8.3.3.1.5.5.8.6.2.2.5.4.5.8l.3.3c.1.1.4.2.3.5.4.2.3.7.5 1l.4.6c.2.1 0 .5.2.7v1.8l-.2 1.1-.2.5c-.1.8-.5 1.5-1 2.1-.4.4-1 .6-1.2 1.1l-1 .5c-.5.2-1 .2-1.4.5-.5 0-.9.4-1.4.2l-.3.1c-.1 0-.3.1-.4 0H19c-.6 0-1.2 0-1.6-.2-.8-.3-1.6-.6-2.3-1.2l-.3-.3-.4-.5c-.2-.3-.5-.5-.6-.8l-.5-1h-.1s-.1.1 0 .1c.2.3 0 .6 0 .9l-.2 1.6-.3 1c-.4.8-.9 1.6-1.5 2.3-.3.4-.7.6-1.2.9-.6.3-1.1.7-1.8.8Z" fill="#FF9428"/><path d="m6.1 41-1.8-.4c-.2 0-.4-.3-.6-.4v-.3l.7-.7c.5-.4.8-1 1.4-1.3.4-.2.6-.7.9-1.1v-.3c-.2-.3-.3-.7-.8-.7l-.3-.3L5 35l-.7-.4-.6-.2-.4-.2V34c.2-.3.2-.8.6-1 .3-.2.5-.7.7-1l.1-.3c.4 0 .3-.4.6-.6.2-.2.5-.4.6-.7.1-.4.5-.4.7-.5h.9l1.2.4c.4 0 .7.3 1.1.5l.1.2-.1.5c-.4.3-.4.8-1 1l-1 1.4-.5.5-.4.8v.2c.3.6.7.8 1.2 1 .2 0 .4 0 .5.2h.2c.4 0 .6.3 1 .4.2 0 .5.2.5.4l-.3.6-1.2 1.3-1 1.2-.4.4-.7.2-.4-.1H6ZM19.3 37l-1.8-.4-.6-.5c-.1 0 0-.1 0-.2l.7-.7c.5-.4.8-1 1.4-1.3.4-.2.6-.8.9-1.2v-.2c-.2-.4-.3-.7-.8-.8l-.3-.2-.6-.4-.7-.4-.6-.3-.4-.2c-.2 0-.1-.2 0-.3.2-.3.2-.7.6-1 .3-.1.4-.6.7-1l.1-.2c.3 0 .3-.5.6-.6l.6-.7c.1-.5.4-.5.7-.5h.8c.4.2.8.2 1.3.3.4.1.7.4 1 .6l.2.2c0 .1 0 .3-.2.4-.3.3-.3.9-.8 1L20.9 30l-.4.5-.4.7v.3c.3.6.7.8 1.2 1 .2 0 .4 0 .5.2h.1c.4 0 .7.3 1 .4.3 0 .5.2.6.4l-.3.5-1.3 1.4-1 1.2-.3.3-.7.2h-.5Z" fill="#fff"/><path d="M35.2 30.5c1.1 1.4 3.9-1.5 6.3-.6 2.2.8 8.3 5.4 15.8 3.3a17.4 17.4 0 0 0 11.8-16.5c-.4-5.2-6.8-19.9-25.3-16C37.3 2 34 8.8 33.6 14.2c-.5 5.8 3.5 11 3.7 11.7-1.7 1.3-2.7 3.7-2 4.5Z" fill="#FF9428"/><path d="m52.9 18.3-2.8.2h-.3l-.1-.3-1-10c0-.2.1-.3.3-.3l3.8-.2c.2 0 .3 0 .3.3l.1 10v.2l-.3.1Zm-1 6c-.6 0-1.1-.2-1.6-.6-.4-.4-.6-1-.7-1.5 0-.7.2-1.3.6-1.7.4-.4.9-.6 1.5-.7.7 0 1.2.2 1.6.6.5.3.7.9.8 1.5 0 .7-.2 1.2-.6 1.6-.4.5-.9.7-1.5.8Z" fill="#fff"/></g><defs><clipPath id="a"><path fill="#fff" d="M0 0h69.1v49.2H0z"/></clipPath></defs></svg>