<svg width="290" height="103" fill="none" xmlns="http://www.w3.org/2000/svg"><g clip-path="url(#a)"><path d="M51.4 54c-.5.3-1 .4-1.5.5a4.4 4.4 0 0 1-3-.6c-.5-.2-.8-.6-1.1-1a4 4 0 0 1-.6-1.6L45 50l1.1-17.6-.4-.1-4.4 4.2-3-3 4.8-4.6a5.1 5.1 0 0 1 4.5-1.5c.5.1 1 .3 1.4.6.5.2.8.6 1.1 1 .3.5.5 1 .6 1.6v1.3l-1 17.6.4.1 4.4-4.2 2.9 3-4.8 4.6c-.4.5-.9.8-1.3 1ZM69.1 27a3.5 3.5 0 0 1 .6-2.7A3.5 3.5 0 0 1 72 23h1.4c.5.2 1 .3 1.3.6l1 1a3.5 3.5 0 0 1 .5 2l-.2 4.6a3 3 0 0 1-1 2.3c-.6.5-1.4.9-2.4 1l-2.8.6-.5-3 2.6-.4c.8-.1 1.2-.5 1.2-1.2v-.7a4 4 0 0 1-1.3 0c-.4 0-.8-.2-1.2-.4a3 3 0 0 1-1-.9c-.2-.4-.4-.8-.5-1.4ZM105 39.9l.4.2 1.6-1.6 3 3.1-2 1.9c-.8.8-1.8 1.3-2.9 1.4-1 .2-1.8.1-2.6-.3-.9-.4-1.4-1-1.8-2l-.7.2a7 7 0 0 1-.5 1.3l-1 1.1-1.4.9-2 .6a6.3 6.3 0 0 1-5.2-1.4 7.7 7.7 0 0 1-1.8-2c-.5-1-.9-2-1-3-.3-1.7-.4-3.2-.2-4.7.2-1.6.6-3 1.3-4.1a9.2 9.2 0 0 1 6.6-4.8c1.4-.2 2.5-.1 3.4.3a4 4 0 0 1 2 1.9l.6-.1.1-2.6 4.7-.8L105 40Zm-8.9 2a5.2 5.2 0 0 0 3.8-2.6c.3-.7.6-1.5.7-2.3v-2.6a4 4 0 0 0-1.6-2.7c-.8-.6-1.7-.8-2.8-.6a5.2 5.2 0 0 0-3.8 2.7c-.4.6-.6 1.4-.7 2.2v2.6c.2 1 .7 2 1.4 2.6.8.7 1.8 1 3 .7ZM118.2 27.8l-5.2.9-.7-4.4 6.1-1.1.3-8.4 4.7-.8-.3 8.4 6.4-1.1.7 4.4L123 27l-.4 9.9.4.2 4.4-4.3 2.9 3-4.8 4.6c-.8.8-1.7 1.3-2.8 1.5-.5.1-1 .1-1.6 0a3.9 3.9 0 0 1-3.2-3.3v-1.2l.4-9.6ZM141.9 30.2v.6c.1.9.6 1.6 1.4 2a4 4 0 0 0 2.8.5c1.2-.2 2-.6 2.7-1.1a5 5 0 0 0 1.3-1.8l4.2 1.7a8.3 8.3 0 0 1-2.5 3.3c-.6.6-1.4 1-2.3 1.5l-3.3 1a9 9 0 0 1-3.2 0c-1-.3-1.9-.6-2.7-1.1a6.8 6.8 0 0 1-2-2c-.5-.8-.9-1.7-1-2.8-.3-1.7-.4-3.3-.1-4.9.2-1.5.8-3 1.5-4.2.8-1.3 1.8-2.4 3.1-3.3a11.7 11.7 0 0 1 8.2-1.8 6.8 6.8 0 0 1 4.4 3.3 8 8 0 0 1 1 4.8v2l-13.5 2.3Zm4.6-8c-1.2.2-2.1.6-2.9 1.3-.7.8-1.2 1.6-1.5 2.5l8.7-1.5c-.2-1-.6-1.6-1.3-2-.7-.5-1.7-.6-3-.3ZM174 32.8l-1.5.5a4.4 4.4 0 0 1-3-.6c-.5-.2-.9-.6-1.2-1a4 4 0 0 1-.6-1.6v-1.3l1.1-17.6-.4-.2-4.4 4.3-3-3 4.8-4.6a5.2 5.2 0 0 1 4.5-1.5c.5.1 1 .3 1.4.6.4.2.8.6 1.1 1 .3.5.5 1 .6 1.6v1.3l-1 17.5.4.2 4.3-4.2 3 3-4.8 4.6c-.4.4-.9.8-1.4 1ZM200.1 27.5a5.1 5.1 0 0 1-2.9 1.5 4.4 4.4 0 0 1-3-.5c-.4-.3-.8-.7-1-1.1a4 4 0 0 1-.7-1.6v-1.3l.6-9.7-.5-.2-4.3 4.3-3-3 4.8-4.6a5.1 5.1 0 0 1 2.9-1.5 4.4 4.4 0 0 1 3 .5c.4.3.8.7 1 1.1.4.5.6 1 .7 1.6v1.3l-.6 9.7.4.2 4.4-4.3 3 3-4.8 4.6Zm-.8-23.9a3.6 3.6 0 0 1-.6 2.7 3.7 3.7 0 0 1-2.3 1.4H195c-.5-.1-1-.3-1.3-.6a3.4 3.4 0 0 1-1.5-2.3 3.6 3.6 0 0 1 .7-2.7c.2-.3.5-.6 1-.9l1.3-.5h1.4l1.2.6a3.4 3.4 0 0 1 1.5 2.3ZM215.4 17.4v.7c.2.9.7 1.6 1.4 2a4 4 0 0 0 2.9.5c1.1-.2 2-.6 2.7-1.2a5 5 0 0 0 1.3-1.7l4.1 1.7a8.2 8.2 0 0 1-2.5 3.3c-.6.6-1.4 1-2.3 1.5-.9.4-2 .7-3.2 1a9 9 0 0 1-3.2 0c-1-.3-2-.6-2.7-1.1a6.8 6.8 0 0 1-2-2c-.6-.8-1-1.8-1-2.8-.4-1.7-.4-3.3-.2-4.9.3-1.6.8-3 1.6-4.3.7-1.2 1.8-2.3 3-3.2a11.8 11.8 0 0 1 8.2-1.8 6.7 6.7 0 0 1 4.4 3.3 8 8 0 0 1 1 4.8v2l-13.5 2.2Zm4.7-8c-1.2.2-2.2.7-3 1.4-.7.8-1.2 1.6-1.5 2.5l8.7-1.5c-.2-1-.6-1.6-1.2-2-.7-.5-1.7-.6-3-.4ZM239.3 6.8l-.4-.2-2.6 2.7-3-3 2.6-2.7a6.6 6.6 0 0 1 3.3-1.8c1-.2 2 0 2.8.3.8.4 1.4 1.1 1.7 2.1l.7-.1c.3-1.1.8-2 1.6-2.7a6 6 0 0 1 3-1.3c1.3-.3 2.5 0 3.6.7a5 5 0 0 1 2 3.4 8 8 0 0 1 0 2.2v.8l-5 1.2V7c-.1-.7-.4-1.3-.9-1.6-.4-.4-1-.5-1.8-.4a3 3 0 0 0-2.2 1.5c-.5.7-.8 1.7-.8 3l-.3 6.5 4.5-.8.7 4.5-12.6 2.1-.8-4.4 3.6-.6.3-10ZM87.5 84.6l.4.2 1.8-1.7 3 3-2.2 2.1a5.7 5.7 0 0 1-2.9 1.5c-1 .2-1.8 0-2.6-.3-.9-.4-1.5-1-1.8-2l-.7.1a7 7 0 0 1-.6 1.3c-.2.4-.5.8-.9 1.1-.4.4-.8.7-1.4 1a8 8 0 0 1-2 .5 6.3 6.3 0 0 1-5.2-1.3 7.6 7.6 0 0 1-1.8-2.1c-.5-.9-.9-1.9-1-3-.3-1.6-.4-3.2-.2-4.7s.6-2.9 1.3-4a9.2 9.2 0 0 1 6.6-4.8c1.3-.2 2.4-.1 3.3.3 1 .5 1.6 1.2 2 2h.7l.4-11.2 4.7-.8-.4 11.1-.5 11.7Zm-8.9 2a5.2 5.2 0 0 0 3.8-2.6c.3-.7.6-1.4.7-2.3v-2.6a4 4 0 0 0-1.6-2.6c-.8-.6-1.7-.9-2.8-.7a5.2 5.2 0 0 0-3.8 2.7c-.4.7-.6 1.4-.7 2.3v2.6c.2 1 .7 1.9 1.4 2.6.8.7 1.8.9 3 .7ZM100.6 63.3a3.5 3.5 0 0 1 3-4.1h1.3c.5.1 1 .3 1.3.6a3.5 3.5 0 0 1 1.5 2.7v.3l-.1 4.6a3 3 0 0 1-1 2.3c-.6.5-1.4.9-2.5 1l-2.8.5-.5-2.9 2.6-.4c.8-.1 1.2-.6 1.2-1.3V66a4 4 0 0 1-1.3 0 3 3 0 0 1-2.2-1.3l-.5-1.4ZM133 75.6l-8.6 1.5-1.4 6-5.2.8 7-27.9 9-1.5 5 25.8-4.8.8-1-5.5Zm-7.4-3.5 6.5-1.2-2.5-13.2-.7.1-3.3 14.3ZM156.4 77.6c-.5.2-1 .4-1.4.4a4.5 4.5 0 0 1-3-.5c-.5-.3-.9-.6-1.2-1a4 4 0 0 1-.6-1.6v-1.4l1-17.5-.3-.2-4.4 4.3-3-3.1 4.8-4.6a5.1 5.1 0 0 1 2.9-1.5 4.5 4.5 0 0 1 3 .6c.4.3.8.6 1 1 .4.5.6 1 .7 1.6v1.3L155 73l.4.2 4.3-4.3 3 3.1-4.8 4.6a5 5 0 0 1-1.4 1ZM182.6 72.3a5.1 5.1 0 0 1-4.5 1.5c-.5-.1-1-.3-1.4-.6-.4-.3-.8-.6-1-1a4 4 0 0 1-.7-1.6v-1.3l.6-9.7-.5-.2-4.3 4.2-3-3 4.8-4.6a5.1 5.1 0 0 1 2.8-1.5 4.5 4.5 0 0 1 3 .6c.5.2.9.6 1.2 1 .3.5.5 1 .6 1.6V59l-.6 9.7.4.2 4.4-4.3 3 3.1-4.8 4.6Zm-.8-24a3.5 3.5 0 0 1-3 4.2h-1.4l-1.2-.6-1-1-.5-1.3a3.6 3.6 0 0 1 .6-2.7l1-1 1.3-.5h1.4l1.3.6a3.4 3.4 0 0 1 1.5 2.3ZM211.7 60.8c-.3 2.3-1.2 4.2-2.7 5.9a11.7 11.7 0 0 1-6.8 3.2c-1 .2-2.1.2-3.2 0a7 7 0 0 1-4.9-3.4 12 12 0 0 1-1.2-8c.3-1.4 1-2.7 1.7-4 .9-1.1 2-2.1 3.3-3a12.9 12.9 0 0 1 8.3-1.7 7 7 0 0 1 4.7 3.3c.6.9 1 1.8 1 2.8l-4.5 1.7A4.3 4.3 0 0 0 206 55c-.8-.6-1.9-.8-3.3-.5a6.1 6.1 0 0 0-5 4.9c-.2.8-.2 1.7 0 2.6.2 1.4.7 2.3 1.6 2.9.9.5 1.9.7 3 .5 1.5-.3 2.7-.8 3.4-1.7.8-.8 1.3-2 1.5-3.2l4.5.4ZM222.4 58v.6c.2.9.7 1.6 1.5 2a4 4 0 0 0 2.8.5c1.2-.2 2-.6 2.7-1.1a5 5 0 0 0 1.3-1.8l4.1 1.7a8.2 8.2 0 0 1-2.4 3.3c-.7.6-1.5 1-2.4 1.5-.9.4-2 .7-3.2 1a9 9 0 0 1-3.2 0c-1-.3-2-.6-2.7-1.1a6.8 6.8 0 0 1-2-2c-.5-.8-.9-1.8-1-2.8-.4-1.7-.4-3.3-.1-4.9a10.4 10.4 0 0 1 4.6-7.5 11.8 11.8 0 0 1 8.1-1.8A6.8 6.8 0 0 1 235 49a8 8 0 0 1 1 4.8v2l-13.5 2.2Zm4.7-8c-1.2.1-2.2.6-3 1.3-.7.8-1.2 1.6-1.4 2.5l8.6-1.5c-.1-1-.6-1.6-1.2-2-.7-.5-1.7-.6-3-.4Z" fill="#2C2E35"/><path d="M32.8 72.6c1.6 5.7-.2 12.3-4.8 16.1-4.6 3.9-11.7 5.2-17 2a7.9 7.9 0 0 1-4-6.2c-.2-2.2.8-4.8 3-5.7 2.5-1.1 5.6.3 7.1 2.4 1.7 2.5 1.7 5.8.6 8.6-2.2 6-9 9.8-15.3 8.9-2.6-.4-3.4 3.7-.8 4 7.7 1.1 15.8-2.8 19.3-9.9 1.8-3.7 2.3-8.4.5-12.3-1.7-3.6-5.3-6-9.2-6.2-8.4-.4-11.7 10-7.4 16.2 5 6.9 15 7.5 22 3.9 8.4-4.3 12.4-14.1 9.9-23.1-.8-2.6-4.6-1.2-4 1.3ZM286.2 23.2l-6.8 1.2c-1.4.2-2.5 1.7-2.2 3a2.7 2.7 0 0 0 3 2.3l7-1.2c1.3-.3 2.4-1.7 2.1-3.1a2.7 2.7 0 0 0-3-2.2ZM280 6.9l-5.7 4c-1.1.9-1.5 2.7-.6 3.8a2.7 2.7 0 0 0 3.8.6l5.6-4c1.1-1 1.5-2.7.6-3.8a2.7 2.7 0 0 0-3.7-.6ZM284.6 46.5l-6.3-3c-1.3-.5-2-2.2-1.3-3.5.7-1.3 2.2-1.9 3.5-1.3l6.3 3c1.3.6 2 2.3 1.3 3.6-.7 1.2-2.2 1.9-3.5 1.2Z" fill="#FF9428"/></g><defs><clipPath id="a"><path fill="#fff" d="M0 0h289.4v102.9H0z"/></clipPath></defs></svg>