<svg xmlns="http://www.w3.org/2000/svg" xml:space="preserve" viewBox="0 0 300 300">
  <path d="m550.9 304.6-9.1.3c-1.8.1-3.5 1.7-3.4 3.6a3.7 3.7 0 0 0 3.6 3.4l9.1-.3c1.8-.1 3.5-1.7 3.4-3.6-.2-1.9-1.7-3.5-3.6-3.4m-5.2-22.3-8 4.3c-1.6.9-2.4 3.1-1.5 4.7 1 1.6 3 2.4 4.7 1.5l8-4.3c1.6-.9 2.4-3.1 1.5-4.7-1-1.7-3-2.5-4.7-1.5m-1.2 52.2-7.7-5c-1.5-1-2.1-3.3-1-4.8s3.2-2.1 4.8-1l7.7 5c1.5 1 2.1 3.3 1 4.8s-3.1 2.1-4.8 1" style="stroke:none;stroke-width:1;stroke-dasharray:none;stroke-linecap:butt;stroke-dashoffset:0;stroke-linejoin:miter;stroke-miterlimit:4;fill:#f49600;fill-rule:nonzero;opacity:1" transform="translate(-271 -147.6)"/>
  <path d="m328.9 235.1-.7 1.6c-.3.5-.7 1-1.2 1.4-.5.4-1 .6-1.6.8-.5.2-1.1.2-1.7.1-.6-.1-1.2-.3-1.8-.7l-1.2-.9-14.2-14.2-.5.2.3 7-4.9.2-.3-7.5c0-.7 0-1.4.2-1.9l.7-1.6c.3-.5.7-1 1.2-1.4.5-.4 1-.6 1.6-.8.5-.2 1.1-.2 1.7-.1s1.2.3 1.8.7l1.2.9 14.2 14.2.5-.2-.3-7 4.9-.2.3 7.5-.2 1.9zm-2.8-39.3a4.2 4.2 0 0 1-1.2-2.9c0-.5.1-1 .4-1.5.2-.5.5-.9.9-1.3s.8-.7 1.4-.9l1.5-.3 1.5.3c.5.2 1 .5 1.4.9l.3.3.2.4 2.7 4.4c.6.9.8 1.9.5 2.8-.2.9-.8 1.8-1.6 2.6l-2.4 2.3-2.3-2.4 2.2-2.1c.6-.6.7-1.3.3-2l-.4-.6-1.2.8-1.4.4-1.5-.2c-.5-.1-.8-.6-1.3-1zm46.9-7.5.5.1 1.1-2.3 4.3 2.2-1.4 2.7a6.6 6.6 0 0 1-2.5 2.7 4.6 4.6 0 0 1-5.7-.8l-.7.4-.1 1.6c-.1.5-.3 1.1-.6 1.6a7.9 7.9 0 0 1-3.1 2.9c-1 .6-2 .9-3 .9a8.3 8.3 0 0 1-5.9-2 8.4 8.4 0 0 1-2.2-2.7c-.9-1.7-1.6-3.4-2-5.1-.4-1.7-.4-3.3-.2-4.9.2-1.6.8-3 1.7-4.3.9-1.3 2.1-2.4 3.6-3.3a6.3 6.3 0 0 1 3.7-1c1.1.1 2 .5 2.8 1.3l.7-.4-.9-2.8 4.7-2.7 5.2 15.9zm-8.8 5.6c.9-.5 1.6-1.1 2.1-1.9a6 6 0 0 0 .9-2.4c.1-.9.1-1.8-.1-2.7-.2-.9-.6-1.9-1.1-2.8a4.8 4.8 0 0 0-2.6-2.3c-1.1-.4-2.2-.2-3.3.4-.9.5-1.6 1.1-2.1 1.9a6 6 0 0 0-.9 2.4c-.1.9-.1 1.8.1 2.7s.6 1.9 1.1 2.8c.6 1.1 1.4 1.8 2.5 2.2s2.1.4 3.4-.3zm23.5-23-5.8 1.5-1.3-5 6.9-1.8-.5-9.6 5.2-1.4.5 9.6 7.1-1.9 1.3 5-8.2 2.2.5 11.3.5.2 4.5-5.3 3.6 3.2-4.9 5.7c-.9 1-1.9 1.7-3.1 2-.6.2-1.2.2-1.8.1-.6-.1-1.2-.2-1.7-.5l-1.4-1.1a5 5 0 0 1-.9-1.8l-.1-.6-.1-.8-.3-11zm30.3 1.9-.1.7c0 1 .4 1.9 1.2 2.6s1.8 1 3.1 1.1c1.3 0 2.4-.2 3.2-.7s1.4-1.1 1.9-1.7l4.3 2.7a10.5 10.5 0 0 1-6.4 4.4 14.8 14.8 0 0 1-7.4-.2c-1.1-.4-2-1-2.8-1.7s-1.4-1.6-1.8-2.6a9 9 0 0 1-.6-3.4c0-1.9.3-3.8.9-5.5.6-1.7 1.5-3.2 2.6-4.5s2.5-2.3 4.1-3a14 14 0 0 1 5.6-1.1c1.5 0 2.8.3 3.9.7s2 1.1 2.7 1.9c.7.8 1.2 1.7 1.6 2.7.4 1 .5 2 .5 3.1l-.1 1.1-.2 1.4-.5 2.2-15.7-.2zm6.8-8a6 6 0 0 0-3.5 1c-1 .7-1.7 1.5-2.2 2.4l10 .1c0-1.1-.3-1.9-1-2.6-.7-.6-1.7-.9-3.3-.9zm28.6 21c-.6 0-1.2 0-1.8-.2-.6-.1-1.2-.4-1.7-.8l-1.2-1.2a4.4 4.4 0 0 1-.5-3.5l.5-1.4 9.3-17.8-.3-.4-6.5 2.4-1.6-4.6 7.1-2.6c.6-.2 1.3-.4 1.9-.4.6 0 1.2 0 1.8.2.6.1 1.2.4 1.7.8l1.2 1.2a4.4 4.4 0 0 1 .5 3.5l-.5 1.4-9.3 17.8.3.4 6.5-2.4 1.6 4.6-7.1 2.6-1.9.4zm28.7 10.8c-.7.1-1.4.1-2-.1s-1.2-.3-1.7-.6l-1.4-1.1c-.4-.4-.7-1-.9-1.5s-.3-1.1-.2-1.7c0-.6.2-1.2.6-1.8.3-.5.5-.9.9-1.2l7.4-8.2-.2-.5-6.9.7-.4-4.8 7.5-.7c.7-.1 1.4-.1 2 .1s1.2.3 1.7.6l1.4 1.1.9 1.5c.2.5.3 1.1.2 1.7 0 .6-.2 1.2-.6 1.8-.3.5-.5.9-.9 1.2l-7.4 8.2.2.5 6.9-.7.4 4.8-7.5.7zm16.3-22-1 1.3c-.4.4-.9.6-1.4.7s-1 .2-1.6.1c-.5-.1-1-.2-1.5-.5a4 4 0 0 1-1.2-1c-.3-.4-.6-.9-.7-1.4-.2-.5-.2-1-.2-1.6 0-.5.2-1.1.5-1.6l1-1.3c.4-.4.9-.6 1.4-.7s1-.2 1.5-.1 1 .2 1.5.5.9.6 1.2 1c.3.4.6.9.7 1.4l.2 1.6c0 .6-.2 1.1-.4 1.6zm5.6 27.1-.6.5c-.7.8-1 1.6-.9 2.7.1 1 .6 2 1.6 2.9 1 .9 1.9 1.5 2.9 1.7s1.8.2 2.5 0l1.3 4.9c-.6.2-1.4.3-2.2.3a12.2 12.2 0 0 1-5.5-1.4c-1-.5-2-1.3-3.1-2.3a9.7 9.7 0 0 1-3.1-6.1c-.1-1.1.1-2.1.4-3.2s1-2 1.8-2.9a15.8 15.8 0 0 1 9.3-5c1.7-.2 3.4 0 5.1.6a15 15 0 0 1 4.9 3c1.1 1 1.9 2.1 2.3 3.2.5 1.1.7 2.2.7 3.2 0 1.1-.2 2.1-.7 3.1a7.8 7.8 0 0 1-2.5 3.3l-1.1.9-1.8 1.3-11.3-10.7zm10.5-1.3c-1-.9-2.1-1.5-3.2-1.6s-2.3-.1-3.3.3l7.3 6.9c.7-.8 1.1-1.6 1-2.6s-.7-1.9-1.8-3zm16.9 20.6v-.5l-3.9-1.5 1.7-4.5 4 1.5c.8.3 1.4.7 2 1.2.6.5 1.1 1 1.4 1.6.6 1 .9 2 .8 3s-.5 2-1.4 2.7l.4.6c1.3-.2 2.5 0 3.6.6s1.9 1.4 2.6 2.4a5 5 0 0 1 .8 4.2c-.3 1.4-1.2 2.6-2.8 3.6l-1 .5-1.2.5-.9.3-3.5-4.6.6-.2 1-.5c.7-.4 1.1-1 1.3-1.6s0-1.4-.5-2.1c-.6-1-1.4-1.5-2.4-1.7s-2.2 0-3.6.5l-6.9 2.6 2.8 4.3-4.3 2.8-7.9-12.4 4.3-2.8 2.2 3.5 10.8-4zM336.9 405.6l.1.5 2.8.3-.6 4.8-3.4-.4c-.7-.1-1.4-.2-1.9-.5l-1.5-.9a4.8 4.8 0 0 1-1.6-2.6 4 4 0 0 1 .4-3l-.6-.5c-.5.2-1 .4-1.6.4h-1.7l-1.8-.6c-.6-.3-1.3-.7-2-1.3a6.4 6.4 0 0 1-1.9-2.5c-.4-1-.7-2-.7-3s.2-2.1.5-3.2c.4-1.1 1-2.1 1.8-3 1.2-1.5 2.6-2.6 4.1-3.6s3-1.5 4.5-1.9 3.1-.3 4.6.1c1.5.4 3 1.1 4.3 2.3 1.1 1 1.9 2 2.1 3.2s.2 2.2-.3 3.2l.6.5 10.1-7.8 4.1 3.5-10.1 7.7-10.3 8.3zm-8.3-6.3a5.7 5.7 0 0 0 5.1 1.3 7.7 7.7 0 0 0 4.7-3c.9-1 1.3-2.1 1.2-3.2s-.5-2.1-1.5-3a5.7 5.7 0 0 0-5.1-1.3 8.3 8.3 0 0 0-4.7 3c-.8.9-1.2 2-1.3 3.1s.5 2.2 1.6 3.1zm38.5.1 1-1.3c.4-.4.9-.6 1.4-.7l1.5-.2c.5 0 1 .2 1.5.5.5.2.9.6 1.2 1l.8 1.4c.2.5.2 1 .2 1.5s-.2 1.1-.5 1.6l-.2.4-.2.4-3.3 4c-.7.9-1.5 1.3-2.5 1.4a5 5 0 0 1-3-.7l-2.9-1.5 1.5-3 2.7 1.4c.8.4 1.4.3 2-.3l.4-.5-1.2-.9c-.4-.4-.6-.8-.8-1.2-.2-.5-.3-.9-.2-1.5l.6-1.8zm27.3 31.4-9.6-2.3-4.2 5.6-5.9-1.4 19.9-26.1 10.2 2.5-6.4 29.4-5.5-1.3 1.5-6.4zm-6.2-7.1 7.3 1.8 3.4-15-.8-.2-9.9 13.4zm37.1 17.1c-.6.2-1.2.2-1.8.2a4 4 0 0 1-1.8-.4c-.6-.2-1.1-.5-1.5-.9-.4-.4-.8-.9-1-1.4s-.3-1.2-.3-1.9l.2-1.5 5-19.4-.4-.3-5.8 3.9-2.6-4.1 6.3-4.1c.6-.4 1.2-.7 1.8-.8.6-.2 1.2-.2 1.8-.2a4 4 0 0 1 1.8.4c.6.2 1.1.5 1.5.9.4.4.8.9 1 1.4s.3 1.2.3 1.9l-.2 1.5-5 19.4.4.3 5.8-3.9 2.6 4.1-6.3 4.1-1.8.8zm36.2-5.4-1.5 1.2a5 5 0 0 1-1.7.6c-.6.1-1.2.2-1.8.1l-1.7-.5-1.3-1.1c-.4-.5-.6-1.1-.8-1.7l-.2-1.5.1-11.1-.5-.2-4.7 5.1-3.5-3.3 5.1-5.5 1.5-1.2a5 5 0 0 1 1.7-.6c.6-.1 1.2-.2 1.8-.1l1.7.5 1.3 1.1c.4.5.6 1.1.8 1.7l.2 1.5-.1 11.1.5.2 4.7-5.1 3.5 3.3-5.1 5.5zm-2.5-27.2a4.3 4.3 0 0 1-.6 3.1c-.3.4-.6.8-1.1 1.1-.4.3-.9.5-1.5.7-.6.1-1.1.1-1.6 0l-1.5-.5c-.4-.3-.8-.6-1.1-1.1-.3-.4-.5-.9-.7-1.5a4.3 4.3 0 0 1 .6-3.1c.3-.4.6-.8 1.1-1.1.4-.3.9-.5 1.5-.7.5-.1 1.1-.1 1.6 0l1.5.5c.4.3.8.6 1.1 1.1s.6.9.7 1.5zm37.5 5.3c.4 2.6 0 5.1-1.1 7.4s-3.3 4.2-6.3 5.7a9.6 9.6 0 0 1-6.9.7 9 9 0 0 1-3.1-1.8c-1-.9-1.8-2-2.5-3.4a12.5 12.5 0 0 1 1.8-14.2c1.2-1.4 2.7-2.5 4.6-3.4 1.4-.7 2.7-1.1 4-1.2 1.2-.1 2.4 0 3.4.4s2 .9 2.8 1.7c.8.8 1.5 1.7 2 2.7l-4.4 3.4c-.6-1.3-1.5-2.2-2.5-2.5-1-.4-2.2-.2-3.7.5a6.8 6.8 0 0 0-3.6 4.2c-.3.9-.4 1.8-.3 2.8a9 9 0 0 0 .8 2.8c.7 1.5 1.6 2.3 2.8 2.6 1.1.3 2.3.2 3.4-.4 1.6-.8 2.7-1.8 3.2-3s.7-2.5.5-4l5.1-1zm13.5-10.6.4.6c.7.8 1.5 1.2 2.5 1.2s2.1-.4 3-1.2c1-.9 1.7-1.7 2-2.6.3-.9.4-1.7.3-2.5l5-.7.1 2.2-.6 2.5a14 14 0 0 1-4.2 5.5 9.5 9.5 0 0 1-6.5 2.3 8 8 0 0 1-5.8-3c-1.2-1.5-2.2-3.1-2.8-4.8s-1-3.4-.9-5.1c0-1.7.4-3.4 1.2-5 .8-1.6 2-3.1 3.6-4.5 1.1-1 2.3-1.6 3.4-1.9s2.3-.4 3.3-.3 2 .5 3 1c.9.5 1.7 1.2 2.4 2l.6.9.7 1.2 1 2-11.7 10.2zm0-10.5a6.4 6.4 0 0 0-2.1 6.3l7.7-6.4c-.7-.8-1.5-1.3-2.4-1.3-.9-.1-2 .4-3.2 1.4z" style="stroke:none;stroke-width:1;stroke-dasharray:none;stroke-linecap:butt;stroke-dashoffset:0;stroke-linejoin:miter;stroke-miterlimit:4;fill:#000;fill-rule:nonzero;opacity:1" transform="translate(-271 -147.6)"/>
  <path d="M310.4 338.5c-7.5-1.4-14-6.9-16.2-14.3s.1-16.5 6.5-21.2c2.9-2.2 6.8-3.3 10.3-1.9 3 1.2 5.7 4.2 5.1 7.7-.5 3.2-3.7 5.7-6.8 6.2-3.7.6-7.4-1.2-10-3.7a18.9 18.9 0 0 1-1.8-24c2-2.9-2.7-5.5-4.6-2.7-6 8.7-5.5 20.9 1.2 29 3.3 4 8.4 6.9 13.8 6.9 4.9 0 9.8-2.7 12.2-7s1.7-9.7-1.5-13.5-8.7-5.5-13.7-4.6c-10.8 2-17.1 13.6-16.8 23.8a26 26 0 0 0 20.9 24.5c3.4.6 4.8-4.6 1.4-5.2z" style="stroke:none;stroke-width:1;stroke-dasharray:none;stroke-linecap:butt;stroke-dashoffset:0;stroke-linejoin:miter;stroke-miterlimit:4;fill:#f49600;fill-rule:nonzero;opacity:1" transform="translate(-271 -147.6)"/>
  <path d="M428.7 382.6c-1.3.2-3-.3-4.5.2-2.3-.7-4.7.2-7-.6-.4-.2-1 .2-1.6.2l-1.6-.2c-2.5 0-5.1 0-7.5-1.1-2.8-.1-5.3-1.4-8-2-1-.2-2-.7-3-1.1-2.7-1.1-5.5-1.7-7.8-3.5-1.6.1-2.4-1.4-3.7-2-3.3-1.5-6.2-3.6-9.2-5.6a10 10 0 0 1-2.2-1.9c-1.3-1.2-2.9-2-4.2-3.2l-4.6-3.9-1.1-.7c-.5-.4-1-.7-1.4-1.2-.7-.8-1.3-1.7-2.1-2.4l-.5-.7-3.7-4.5c-.7-.9-1.5-1.8-2-3-.6-1.2-1.7-2.2-2.5-3.4-1.3-2.1-2.6-4.2-3.4-6.5-.4-1.1-1.3-2-1.5-3.2l-.5-1.7c-.3-1.8-1.5-3.3-2-5l-1.6-4.9c-.6-1.6-.5-3.5-1.5-5-.2-.2-.2-.6-.2-.9-.1-2.4-.7-4.8-1.3-7.1l-.2-.7-.4-8.1c0-.7.2-1.5-.3-2.2v-.5c.1-.7.3-1.3.2-2-.2-2.7.3-5.3.5-7.9.1-1.5.4-3.1.7-4.6l.4-.8.4-1.6c.1-.7-.1-1.5.4-2.1.3-.4-.6-1 .2-1.6.3-.2.4-1 .4-1.5.1-.6-.1-1.3.2-1.8 1.1-2.2 1.1-4.6 2.2-6.8.2-.3.3-.6.1-.9.3-.1.6-.3.7-.7.2-.7.8-1.2 1.1-1.9l2.9-6.1c.4-.9 1-1.5 1.5-2.3.4-.8 1.1-1.4 1.7-2.1.1-.1.4-.2.4-.4.2-1.5 1.4-2.4 2.1-3.6.8-1.6 1.5-3.2 2.6-4.7l2.6-3.1a123 123 0 0 1 3.5-3.9c.9-1 2.1-1.8 2.8-3.1.4-.7 1.2-1.2 1.8-1.7 2-1.6 3.9-3.5 6.2-4.8 2-1.1 3.6-2.7 5.5-3.8l5.4-3.3c.9-.6 2-1.1 3-1.5.7-.2 1.6-.1 2-.7.5-.6 1.5-.3 1.7-1.2 1.3-.4 2.6-1 3.9-1.2 1-.2 1.9-.4 2.7-.8 2-1.2 4.2-1.4 6.3-2 .5-.1 1 .2 1.5-.4.3-.3.9-.2 1.4-.2.6-.1 1.2.1 1.8-.3.3-.2.9-.1 1.3-.1 1.3.1 2.5 0 3.8-.6l1.1-.2c1.3-.1 2.6-.3 3.9-.7l1.3-.1h11c1.8 0 3.6.3 5.4.6.5.1 1-.2 1.6.1.5.3 1.3.3 1.9.4l1.8.4 1.8.3c.7.3 1.5.3 2.3.3 1.4 0 2.5.8 3.8 1 .6.1 1.3-.5 2 .2.4.4 1.2.5 1.8.8l1.9 1.1 1.4.4c.7.3 1.5.3 2.1.9.3.3.7.5 1.1.6 1.9.3 3.6 1.4 5.4 1.9l.5.1c2 1.6 4.4 2.5 6.4 4l4.2 2.9c1.8 1.1 3.4 2.3 4.5 4.1.1.2.5.3.8.5 1 .9 2.2 1.7 3 2.9.5.7 1.3 1.2 2 1.9l1.9 2 3.7 3.8a12 12 0 0 1 3.1 4.2c1.9 1.7 2.9 4 4.2 6.1 1.6 2.6 3.3 5.2 4.3 8.1.2.6 1 .8.8 1.6 1.1 1.9 1.4 4.1 2.2 6 1.1 2.5 1.8 5.1 2.4 7.7l.2 1.2.3 1.2c.3.6.5 1.2.4 1.9 0 .3.1.8.3 1 .4.4.5.8.1 1.3v.7c.9 1.4.7 3 1 4.5.2.9.4 1.8.2 2.7-.2.9.1 2 .1 2.9v3c0 .7-.2 1.5.3 2.1v.5c-.6 1-.3 2-.3 3.1 0 1.8-.2 3.6-.8 5.4v.6a162 162 0 0 1-.8 6.9c-.1 1.1-.4 2.2-.8 3.3-.4 1.2-.5 2.6-1.1 3.8-.5 1.1-.7 2.4-1 3.6-.1.3.2.7.1 1l-.6.9c-.4.8-.6 1.5-.8 2.4-.1.9-.5 1.7-.8 2.6l-1.8 4.7-.5.7c-.1.2-.5.5-.5.7-.1 1.3-.9 2.2-1.3 3.3-.5 1.1-1.3 2-1.9 3.1-1.6 2.6-3.8 4.8-5.5 7.3l-.1.1c-1.7.7-2.5 2.4-3.9 3.4-1.1.8-2 2-2.9 3.1-.9 1.2-1.9 2.4-3.2 3.2l-.3.2c-1.4 1.7-3.2 2.8-4.9 4.1-2.1 1.6-4.1 3.3-6.6 4.2-.9.3-1.6 1-2.4 1.5-.4.2-.7.5-1.1.6-1.3.4-2.4 1.1-3.4 1.9-.7.5-1.6.6-2.3 1-.8.5-1.5.8-2.3.9-.8.1-1.4 1-2.3.8-1.2 1-2.9 1.1-4.3 1.8-2.3 1.1-4.9 1.6-7.2 2.6l-1.6.4c-1.5.1-3 .5-4.4 1l-.7.1c-2.1 0-4.1.4-6.1.7-1.6.8-3.2.6-4.9.6zm-24-160.3h-.2c-.9.3-1.8.8-2.7.9-1 .1-2 0-2.6 1l-.5.2a4 4 0 0 0-2.4.6l-2.3 1c-1.1.5-2.2 1.2-3.2 1.9-1.6 1-3.1 2.1-4.8 2.9-1.9 1-3.3 2.5-5.1 3.6-.7.5-1.3 1.2-2 1.6-.9.5-1.6 1.1-2 2l-.3.2c-.9-.1-1.3.7-1.8 1.2l-3.4 3.7-2 1.7c-.6.7-1 1.7-1.7 2.3a21 21 0 0 0-3.1 3.6l-1.6 2c-1.2 1.5-1.9 3.2-2.8 4.8l-3 5.7c-.4.9-.9 1.8-1.5 2.6-.7.9-1.3 1.7-1.4 2.9l-.4.4c-.6.4-.6 1-.8 1.6l-.6 2.4c-1.2.5-.5 1.6-.7 2.4 0 .2-.3.4-.4.6l-.4 1c-.5 1.5-.6 3.2-1.1 4.7-.2.8-.1 1.8-.4 2.7.6.8-.3 1.8.2 2.6a38 38 0 0 0-.6 6.7c0 3.3.7 6.6.4 10 0 .7.2 1.3.3 2l.5 2.3c.4 1.3.2 2.8.8 4l.2.9c.4 1.9.3 4 1.4 5.7l.1.7.4 1.2 1.3 3.5c.7 1.5 1.2 3.1 2.2 4.5l.5 1c.3 1 .8 1.9 1.4 2.9.5.9 1.2 1.6 1.6 2.4.9 2.2 2.3 3.9 3.5 5.9 1.1 1.8 2.4 3.5 3.9 5.1 1.9 2 3.4 4.4 5.5 6.2 2.4 2 4.3 4.5 7 6.2l3.6 2.4c.4.2.9-.2 1.3.5.2.3.9.3 1.4.5l.9.5 2.1 1.4 1.4.7c1.6.5 3 1.5 4.7 1.8 1.5.3 3 .8 4.3 1.6.9.5 1.8 1.3 3 1l.5.1c1.4.8 3 .7 4.6 1 .4.1.8 0 1.1.2 1.1.5 2.2.6 3.4.6l1.2.2c.4.1.9.2 1.3.1.6-.1 1-.4 1.7 0 .5.4 1.2-.4 1.8 0 .5.4 1-.4 1.7-.1.5.2 1.3.3 1.8.1.8-.4 1.7-.1 2.5-.3 1-.2 2 0 3 0 .4 0 .9.1 1.3-.1 1.3-.5 2.6-.2 3.9-.7 2.7.3 5.2-.8 7.8-1.3 1.5-.3 2.9-1 4.4-1.4l1.9-.4c.9-.3 1.6-.7 2.5-.9 1-.2 1.6-.9 2.7-1 .9-.1 1.6-.7 2.5-.9 1-.2 1.5-1.3 2.6-1.2 2.6-1.3 5.2-2.5 7.6-4.2 1.3-.9 2.5-1.9 3.9-2.7 2.1-1.2 4.1-2.6 5.8-4.4l.3-.2c1.5-.9 2.7-2 3.9-3.2.8-.8 1.4-1.8 2.3-2.6 1.6-1.5 2.9-3.2 4.2-4.9 1.2-1.6 2.2-3.3 3.3-5 .7-1.1 1.2-2.4 2-3.4.8-1.1 1.4-2.4 2.1-3.5 1.6-2.7 2.6-5.6 3.6-8.6l1.5-5.7.4-1.6c.1-1.1.1-2.3.3-3.4l.4-3.2.4-3.4c-.5-.4 0-.9 0-1.3l.2-1.6c0-1 .2-2 0-2.9-.1-.5-.3-.9 0-1.4v-.5c-.5-.6-.2-1.3-.3-2-.1-1.1.1-2.3-.3-3.5a8 8 0 0 1-.4-2.7c0-2-.5-3.8-.9-5.7l-.3-1.2c-.2-1-.2-1.9-.5-2.9-.4-1.5-.8-3-1.4-4.4-.6-1.5-.8-3.1-1.5-4.6-.2-.4-.7-.8-.7-1.2-.1-2-1.6-3.5-1.9-5.4-.1-.5-.2-1-.5-1.3-1.2-1.4-1.7-3.3-2.8-4.8l-2.2-3.5c-1.6-2.2-3.6-4.1-5.4-6.2l-1.8-2.1-2.1-1.8-2-2c-.2-.2-.4-.5-.7-.6l-5.8-4.3c-3.4-2.3-7-4.4-10.8-6-1-.4-1.8-1.4-3-1.2l-.3-.2c-2.5-1.7-5.4-2.1-8.2-3.1-1.3-.4-2.7-.5-4-.8l-3-.7-3.1-.4c-1-.1-1.9-.3-2.9-.3l-9-.4h-6.6l-3.1-.1c-1.1 0-2.1.2-3.2.1-1-.1-2 .4-3 .1-.2-.1-.5.1-.6.2-.5.3-.7.8-1.3.9-.1-.1-.5-.1-.9-.6z" style="stroke:none;stroke-width:1;stroke-dasharray:none;stroke-linecap:butt;stroke-dashoffset:0;stroke-linejoin:miter;stroke-miterlimit:4;fill:#00baee;fill-rule:nonzero;opacity:1" transform="translate(-271 -147.6)"/>
  <path d="M430.1 366.6h-.3c-.8.2-1.5.2-2.3.2-.9 0-1.7.3-2.6.3h-5.2c-.6.1-1-.6-1.7-.2-.4.2-1.1-.1-1.7-.1h-1.6l-1.5-.3c-1.5-.2-3-.8-4.6-.8-.7-.7-1.8-.6-2.6-.9-1.6-.6-3.3-1-5-1.3-1-.2-2.1-.6-3-1.1l-3.2-1.6-3.8-2c-1.9-.9-3.8-2-5.5-3.2l-.3-.1c-2.6-1.1-4.5-3.1-6.8-4.6-.9-.6-1.5-1.6-2.3-2.4l-1.3-1.2-3.9-4.4-1.2-1.4c-.7-.7-1.4-1.3-1.7-2.3l-.5-.7a12 12 0 0 1-2.8-4.2c-.7-1.6-1.7-3.1-2.6-4.6-1.2-2-2.6-3.9-3.1-6.2-.4-1.7-1.4-3-1.8-4.6l-2-6a5 5 0 0 0-.5-1.3c-.4-.8-.5-1.7-.6-2.6-.1-.5-.3-1.1-.1-1.5.4-.7-.3-1.1-.2-1.7v-1.7l-.4-2.5c-.1-.8 0-1.5-.3-2.3-.2-.6-.3-1.6 0-2.1.4-.6 0-1.2.2-1.8.3-.6.1-1.3.1-2v-3a8 8 0 0 1 .7-4c.4-.8.5-1.8.7-2.7.4-2.2 1.1-4.3 1.7-6.5.3-1.1.4-2.2.9-3.2l1.6-3.7a9 9 0 0 0 .9-2.6c.2-1.3 1.1-2.2 1.5-3.4.4-1.1 1-2.1 1.5-3.2l1.2-2.2c.7-1 1.5-1.9 2.1-2.9 1.1-2 2.6-3.7 4-5.5 2-2.6 4.1-5 6.5-7.2l2.6-1.9.4-.4c.8-.8 1.5-1.6 2.5-2.2 1-.5 1.8-1.4 2.7-2.1l2.8-1.9 2.8-2c1.4-.9 2.9-1.6 4.3-2.4 2.1-1.3 5.9-2.6 8.9-3.4 2.7-.7 5.4-1.2 8.1-1.7 2.6-.5 5.2-1.1 7.9-.8h2.2c.6.1 1.2-.2 1.9-.1l2.2.1h2l1.9-.2c.6 0 1.3.2 1.9.4l1.9.4c.2.1.4-.2.8 0 1.3.7 2.7.9 4.1.9 1.5.1 3.1.3 4.6.7l2.4.6c1.4.2 2.6 1.1 4.1 1.2 1.5.1 2.6 1.2 3.9 1.6 1.1.4 2.3.9 3.4 1.5.8.5 1.8.9 2.6 1.6l2.6 1.6c.5.3 1.1.4 1.5.8 1 1 2.3 1.8 3.3 2.8.2.2.4.4.6.4 2 .3 3 2.2 4.8 3.1.2 1.2 1.4 1.6 2.1 2.4.7.7 1.8 1.2 2.3 2.1.9 1.5 2.7 2.4 3.2 4.2 1 .7 1.3 1.9 2 2.7l1.6 2 1.3 2.3 1.3 2.3 1.8 3c.8 1.6 1.8 3.2 2.2 5v.2c.8 1 1 2.2 1.4 3.4.4 1.2.8 2.4 1 3.6.2 1 .2 1.9 1.1 2.5 0 1.4.4 2.7.8 4-.4.7 0 1.5-.2 2.3-.1.5.2 1 .2 1.5l.4 6.3c.1.9.5 1.7.4 2.6-.1.5-.3.9-.3 1.4l.3 1.2c0 .6.2 1.2-.3 1.8v.5c.5 1.5.1 3-.1 4.4-.3 1.9.1 4-.8 5.8-.2.5.5 1-.1 1.5-.3.2-.3.9-.3 1.3l-.1 1.6-.3 1c-.2.6-.6 1.1-.4 1.7l-.1.5c-1 1.6-1.5 3.4-2.2 5.1l-2.2 5c-.1.2-.2.5-.4.6-.8.5-.9 1.3-1 2-.1.6-.4 1-.8 1.4-1.1 1.3-1.8 2.9-2.7 4.4l-1.7 2.4c-1 1.4-2.1 2.6-3.2 3.9a29.8 29.8 0 0 1-4.1 3.8c-1.2.9-2.1 2.2-3.1 3.3-.4.4-.5 1.2-1.3.7l-.4.4c-.4.8-1.2 1.1-1.9 1.5-.5.3-1.3.5-1.2 1.4l-.2.3c-1.1 0-1.5 1.1-2.4 1.4-.6.2-1.4.5-1.6 1.2-.9-.1-1.2.6-1.8 1.1-.2.1-.4.4-.6.4-.7-.1-1 .6-1.5.7-.6.1-.9.6-1.4.8-1.6.9-3.3 1.6-5 2.2-.7.2-1.4.4-2 .8a6 6 0 0 1-2.6 1.1c-1.3.4-2.8.6-3.9 1.5-.3.2-.8.2-1.2.2-1.4 0-2.8-.1-4 .7l-.3.1c-2.4.1-4.9.4-7.2 1.1-.4.4-.5.3-.8.1zm40.2-95.6c-.7.4-2.8.5-2.5-1.5.5-.6 1.5-1.2 2.7-1.7 2-1.2 3.1-2.2 5.3-3l.1-.1c1-.8 1.9-1.6 3.1-2.1.7-.3 1.2-.9 2-1.2.9-.4.9-1 .3-1.9l-1-1.7c-.2-.5-1-.6-.9-1.4.1-.8-.8-.9-1.1-1.5l-.1-.1c-1.6-3.1-4.4-5.2-6.4-8.1-.5-.7-1.3-1.1-1.9-1.6l-2 1.6-.6.6-3.5 3.9c-.5.6-1.3 1-1.8 1.7-1 1.2-2.8 2.9-4.1 4.5l-.9.6c-.5.3-1.2.1-1.7-.4-.3-.3-.4-1.1 0-1.5a48 48 0 0 1 3.2-3.6l2.2-2.2c1.4-1.4 2.9-2.7 4-4.5.5-.8 1.2-1.4 1.9-2.1.5-.6.4-1.1-.2-1.5l-.8-.4c-1.6-1.3-3.3-2.4-5-3.6-2.2-1.7-4.8-2.9-7.3-4.1-1-.4-1.9-.9-2.9-1.2-1.3-.5-1.4-.4-2 .7l-.7 1.6-2.8 6.7-1.2 2.6-.8 2.1c-.6 1.6-.2 1.6-1.1 3.1-.3.4-.4.8-1.1.9-1 .1-1.3.1-1.4-.8a5 5 0 0 1 .7-2.7c.7-1.7.7-1.9.8-2.4.5-1.7 1.3-3.1 2.1-4.7a15 15 0 0 0 1.4-3.7c.3-1.3 1-2.4 1.5-3.7l.1-.7c0-.4 0-.6-.5-.8l-3.1-.7c-1.7-.4-3.3-1-5.1-.8-.9.1-1.8-.4-2.8-.6-1.7-.3-3.3-1.1-5.1-.9-.9.1-1.3.3-1.4 1-.3 1.2-.7 2.4-.7 3.6.1 2.3-.5 4.6-.4 6.9 0 1.3.2 2.6-.1 3.9-.2.8-.5 1.9-.6 3.6.2.7-.1 1.1-.4 1.6-.4.7-1.4.5-1.7-.3-.2-.4-.3-.9-.3-1.4 0-1.7.4-2.9.4-3.5l-.1-2.3c-.1-.9 0-2 .1-3.1l.1-2.8.1-1.1c.3-1.8.7-3.5.6-5.3 0-.6-.3-.7-.8-.7-2.4.2-4.8-.2-7.3.3-1.3.3-2.6.1-3.9.4-1.5.4-3.2.5-4.7.8l-1.9.4c-.7.2-1.4.3-2 .6-1.1.4-1.3.8-.9 1.9.5 1.4.6 2.9 1.5 4.1l.2.5 1.8 6.6.3 1.4 1.5 4c.4 1 0 2.1-1 2.4-.6.2-1-.1-1.4-.7-.9-1.2-.8-2.2-1.4-3.8-.6-1.5-.9-3.1-1.2-4.6l-1.1-4.5c.4-.6-1.2-.4-.4-1.2l-1.5-4.4c-.1-.3-.6-.6-.8-.6-.5.1-1 .3-1.4.6l-3.2 2.4c-.6.4-1.4.8-2.1 1-.7.1-1.4.4-1.9.9l-2.8 2.1-2.9 2.1-2.2 1.9c-.3.2-.2.4 0 .6l4 4.4c.7.9 1.2 1.9 2 2.7 2.3 2.2 2.8 2.8 4.9 5.2.5.6.4 2-.3 2.5-.6.4-1.8.2-2.2-.5-1.1-1.6-.6-1.2-1.8-2.7l-1.1-1.1c-.8-.9-1.8-1.5-2.4-2.5-.5-.8-.9-1.7-1.6-2.4-1.2-1.2-2.2-2.6-3.5-3.6-.4-.3-.6-.4-1.1 0-1.4 1.3-2.8 2.5-4 3.9-1.5 1.7-3 3.4-4.3 5.3-.3.4-.9.7-1 1.1-.1.5-.4.9-.7 1.2-1 1.1-1.4 2.6-2.5 3.7-.2.2-.2.7-.1 1 0 .2.5.2.7.3.7.4 1.6.5 2.1 1.2.2.3.6.4.9.5l6.5 3.2c1.1.5.5.8 1.8 1 .9.1 1.6.8 1.9 1.8.1.5-.1 1.4-.6 1.4-.6.1-1.1.6-1.8.1-.6-.5-3.3-2-4.6-2.6l-4.4-2.3-3.3-1.7c-.6-.4-1.1-.2-1.4.4l-2.4 4.7-1.7 4.1c-.6 1.5-1.4 3-1.3 4.8 0 .4-.2.9-.4 1.3-.4 1-.7 1.9-.7 2.9 0 .4.2.5.5.5.9 0 1.9-.2 2.7.1 1.6.6 3.2.3 4.7.7 1.3.3 3.9.4 5.2.4.5 0 .9.2 1.5.1.4-.1.7.9 1.1 1.4l.2.3-.1.3c-.4.4-.7.8-1.2 1.1-.4.3-.8 0-1.2-.2h-.5c-1.7-.1-4.7-.6-6.4-.6-1.9 0-3.7-.3-5.5-.5-.6-.1-1.2-.3-1.7-.2-.8.2-.3 1.2-.7 1.8-.7 1.2-.5 2.7-.9 4-.1.4-.1 1 .1 1.4.5.7-.3 1.5.2 2.2v.5c-.5.8-.3 1.6-.3 2.5 0 2-.2 4.1.3 6.2.1.7.2 1 1 .9l3.1-.6c2-.3 3.9-.5 5.8-1 2.1-.6 4.4-.5 6.5-.9.7-.1 1.1.3 1.3.9.2.7-.4 1.7-1.1 1.6-1-.1-2 .3-3 .4-1.5.1-2.8.5-4.2.8l-2.7.7-4.5 1.1c-1.4.4-1.5.6-1.4 2v.4c.4.6.9 1.2.7 2-.3.9.6 1.4.8 2.1.2 1 .7 2 1.1 3l2.1 5.4c.5 1.6 1.5 2.8 2.4 4.1.1.2.6.2.8.1.5-.3 1-.8 1.5-1 1.1-.4 2-1 3-1.4 1.3-.5 2.5-1.5 3.8-2.3 2.3-1.4 4.1-2.2 6.5-3.4.6-.3 1-.1 1.5 0l.6.2c.3.5-.1 1.7-.6 2.1l-.6.3c-1.6.5-2.3 1.2-3.7 2-.9.5-1.7 1.2-2.6 1.5-1.3.4-2.4 1.1-3.4 1.8l-3.2 1.7c-.5.2-1 .7-1.5 1-.1.1-.2.4-.1.5l1 1.8c.4.8 1.3 1.4 1.2 2.5 0 .3.3.8.6 1.1 1.2 1.4 2.1 3 3.4 4.3 1.4 1.4 2.5 3.2 3.8 4.8.6.8 1.5.9 2.1.1.7-.9 1.6-1.5 2.3-2.3 2.8-2.9 5.6-5.7 8.2-8.6 1-1.1 1.1-.7 1.8-2.1.2-.5.7-.8 1.1-1.2.5-.4 1.6-.4 2 0 .5.5.4 1.2-.2 1.9-1.4 1.5-1.6 1.5-2.9 3l-.5.5c-.9 1-1.3 2.5-2.7 3-.2.1-.2.4-.4.6l-1 1-1 .8-1.9 2.2a54.5 54.5 0 0 1-3.4 3.4c-.5.4-.3.7.1 1l2.6 1.9c.8.8 1.6 1.4 2.6 1.8l1.8 1.1.6.4 3.1 1.6 3 1.8c1.3.9 2.9 1.4 4.3 2.1.5.2 1 0 1.2-.4.3-.7.7-1.4.8-2.1.1-1.2.7-2.1 1.1-3.2.3-.8.8-1.4.8-2.4 0-.6.5-1.2.7-1.8l1.9-4.8c.7-1.7.2-1.2 1-2.9.4-.9.5-.9.6-1.9a3 3 0 0 1 1.4-2c.9-.5 1.9 0 1.8 1 0 .4-.2.8-.4 1.2-1.6 3.3-1.1 3.8-2.7 7.1 0 1.3-.7 2.2-1.1 3.3-.4 1.2-.7 2.4-1.3 3.5-.8 1.6-1.4 3.4-1.9 5.1l-.1.9c-.1.7.1 1.2.9 1.3 1.6.3 3.1 1.3 4.8 1.1.7-.1 1.5.3 2.2.5 1.8.5 3.6 1.2 5.6 1h.4c1.4.7 2.9.3 4.3.3 1 0 1.2-.2 1.2-1.3v-2.6c.1-1.6-.3-3.1.3-4.7.1-.2 0-.6-.1-.9-.3-.6-.2-1.1 0-1.7.2-.5-.4-1.2-.2-1.7.4-.9.3-1.8.3-2.7v-3l.3-3.4v-1.3c-.1-.7.3-.9.9-.8h.4c1.1 0 1.4.2 1.4 1.4-.1 1.6-.5 3.1-.3 3.8.3 1.1.2 2.3.1 3.5-.1 1.2-.4 2.5.2 3.8v.7c-.5.5-.3 1.2-.3 1.8v8.5c0 .5.2.6.6.6 1 0 2.1.2 3.1-.1 1.1-.3 2.2-.2 3.3-.6s2.3-.6 3.5-.4h.2c1.2-.6 2.6-.4 3.8-.7 1.8-.3 3.5-.7 5.1-1.5 1.1-.5 1.1-.6.6-1.6-.1-.3-.4-.6-.4-1-.4-2.5-1.5-4.8-2.2-7.2-.6-2.1-1.5-4.1-2.1-6.2l-1.6-4.4v-.5c-.1-.7.3-1.1.8-1.6s.7.2 1.1.2c.6 0 1 .2 1.1.8.1.8.5 2.2.9 3.2 1.4 2.3.4 2.6 2 4.8l.1.3c.3 2.1 1.4 3.9 1.8 5.9.1.9.5 1.7.8 2.5l1 2.6c.4.8.6.6 1.2.5 1.5-.4 2.9-1.2 4.4-1.8.9-.4 1.7-.8 2.5-1.4.7-.6 1.5-1 2.3-1.4 2.3-1.4 4.4-2.9 6.5-4.6.7-.6.7-.7.2-1.4l-1.6-2-.9-1.1c-1.6-2-2.8-4.2-4.6-6a19.4 19.4 0 0 1-3.3-4c-.1-.7-.6-.8-1-1.5a7 7 0 0 1-.5-1.3c-.1-.4.1-.6.5-.8 1.6-.9 2.6.1 3.2 1.3.5.9.5 1.3 1.2 2.1 1.3 1.6 1.8 1.6 2.9 3.4l1.1 1.4 3 3.5c.4.4 1 .8 1.1 1.3.1 1.3 1.5 1.4 2 2.1h.5l3.2-2.9.8-.8c1.6-1.4 3-3 4.3-4.6l3.6-5.1c.3-.4.5-.8.6-1.3.1-.4.1-.7-.4-1-1.4-.8-2.4-2.3-4.2-2.6-.5-1.1-1.7-1.2-2.5-1.7l-1.7-1.3-2-1c-.8-.4-2.9-1.6-3.6-2.4-.6-.6-.5-1.3 0-1.9.5-.5 1.3-.6 1.9-.2l2.4 1.2c1 1 2.6 1 3.4 2.2 1.6.4 2.8 1.4 4.1 2.3.3.2.7.5 1.1.6 1.2.3 2.2 1.1 3.2 1.9.6.5.8.1.9-.2l2.2-4.9 2.5-6 .5-1.7c.2-1.7 1-3.2.8-4.9l.2-.3c.2-.5-.1-1.1-.5-1.1-1.3 0-2.5-.2-3.8-.4-1.1-.2-2.4 0-3.4-.4-2-.8-4.1-.8-6-1.4-.8-.3-1.6-.6-2-1.4-.2-.5-.4-.9-.1-1.5.3-.5.7-.5 1-.4l5 1c2.4.5 4.7 1.2 7.2 1.2.7 0 1.4-.1 2.1.3.6.3 1.1-.2 1.2-.9v-2c0-.7.4-1.5.2-2-.4-.8.3-1.2.2-1.9-.3-2 .3-4.1-.4-6.2-.2-.8-.4-1.8-.3-2.6 0-.9-.2-1.7-.1-2.6.1-1-.4-1.5-1.5-1.2l-3 .4c-1.3.2-2.6.2-3.9.5-1.3.3-4.2.6-4.8.7-1.1.3-2.1-.1-2.6-1l-.1-.3c.1-.8.8-1.5 1.6-1.4 2.1.3 3.4-.8 5.5-.7.7-.6 1.6-.1 2.3-.4.8-.3 1.6-.3 2.5-.3l2.5-.4c.6-.1 1.1-.8 1.1-1.5 0-.5 0-1-.2-1.4-.3-.9-.1-1.9-.9-2.6 0-1.6-.7-3.1-1.1-4.6-.3-1.3-.5-2.6-1.2-3.9-.8-1.4-1.7-2.7-2.1-4.2-.1-.5-.6-.9-.9-1.3-.1-.1-.3-.2-.4-.1l-5.5 2.9c-.3.9-1.4.8-2 1.3-.7.5-1.3 1.2-2.2 1.5l-3.3 1.1z" style="stroke:none;stroke-width:1;stroke-dasharray:none;stroke-linecap:butt;stroke-dashoffset:0;stroke-linejoin:miter;stroke-miterlimit:4;fill:#00baee;fill-rule:nonzero;opacity:1" transform="translate(-271 -147.6)"/>
  <path d="M390 308.3c0-2.1 1.8-3.4 3.6-2.9a6 6 0 0 1 3.5 2.6c1.1 1.5 2.5 2.8 4 4 .6.5 1.5.8 2 1.6.5.7 1.5.8 2.2 1.4.6.5 1.1 1 1.7 1.3l2.2 1.4c.7.4 1.4.9 2.2 1.2.8.4 1.6.6 2.5.9 1.2.4 2.4.6 3.5 1.1.5.2.8-.4 1.3 0 .2.2.8.1 1.2.2.4.1 1 .3 1.3.1.6-.4.9.3 1.3.2.9-.2 1.9.2 2.9-.3.5.5 1.1-.4 1.6 0s.9-.2 1.5-.1c1.4.1 2.7-.3 3.9-1a6 6 0 0 1 2.1-.8 9.3 9.3 0 0 0 4.6-2.1c2.5-1.9 5.1-3.7 7.2-6l2-2.4c1.3-1.5 2.8-2.5 4.9-2.5.4 0 .6.1.8.5.1.3.4.6.7.8.7.5.8 1.2.6 2a12 12 0 0 1-3 5.8c-.4.5-1.1.8-1.1 1.6l-.2.3c-1.4.6-2.3 1.7-3.4 2.6l-1.8 1.5c-1.2 1.1-2.8 1.5-4.1 2.4-.7.5-1.4 1-2.2 1.3l-2.5.8c-1.6.3-3 1-4.7 1.1-.6 0-1.1.3-1.7.5-.8.3-1.6.7-2.6.6l-.8.2c-.5.5-1.2 0-1.7.3-.7.3-1.2.1-1.9-.1h-1.1c-1.6-.1-3.1-.1-4.7-.4-1.1-.2-2.1-.7-3.2-1.1l-3.6-1.3c-.8-.2-1.5-.6-2.4-.6-1.2 0-2.1-.8-3.1-1.3-.6-.4-1.2-.8-1.9-.9-.6-.1-1.1-.4-1.6-.8l-4.2-3a26.3 26.3 0 0 1-7.7-9.5c.1-.4 0-1-.1-1.2z" style="stroke:none;stroke-width:1;stroke-dasharray:none;stroke-linecap:butt;stroke-dashoffset:0;stroke-linejoin:miter;stroke-miterlimit:4;fill:#000;fill-rule:nonzero;opacity:1" transform="translate(-271 -147.6)"/>
  <path d="m427.8 299.7 2.4.5c1 .2 1.5.8 1.8 1.8l.1.3c1 2 .3 3.7-1.1 5.3l-3.9 4.4c-.7.8-1.1.8-1.9.2-.7-.5-.8-1.3-1-1.9-.2-.6.6-1.2 1.1-1.6 1.2-1 2.2-2.1 3-3.3l.4-.8c.1-.4.2-.9 0-1.2-.3-.4-.7-.1-1.1 0l-1.9.5-.5.2a17.5 17.5 0 0 1-5.1 3.2l-1 .3c-.9.1-1.1-.1-1.5-1.2-.3-.7-.2-1 .6-1.5l4.7-3.2c.2-.1.5-.2.6-.4a6.4 6.4 0 0 1 4.3-1.6z" style="stroke:none;stroke-width:1;stroke-dasharray:none;stroke-linecap:butt;stroke-dashoffset:0;stroke-linejoin:miter;stroke-miterlimit:4;fill:#000;fill-rule:nonzero;opacity:1" transform="translate(-271 -147.6)"/>
  <path d="M402.9 301.4a14 14 0 0 1-5.4-.9l-3.4-1.4c-.9-.3-1.6-1-2.3-1.6-1.2-1-2.1-2.3-3-3.7l-1.2-1.5a10.4 10.4 0 0 1-2.2-5.4c-.1-.8-.1-1.6-.4-2.2-.6-.9.1-2-.6-2.8.6-1.5 0-3 .4-4.5.5-1.6 1.3-3 2.1-4.5.6-1.1 1.4-2.1 2.1-3.2.8-1.1 1.8-2 3-2.7l3.1-2 .1-.1c.4-.5.9-.8 1.6-.7l.5-.2c1 0 1.5-1 2.6-1 .9.1 1.8-.5 2.7-.6 1.7-.2 3.5 0 5.2.5a48.3 48.3 0 0 1 4.4 1.4l2.6 1.5a10 10 0 0 1 2.4 2.6l1.1 1.6 1.2 2.3c.5.9 1 1.8 1.6 2.5.9 1.2 1 2.6 1.5 3.9l.1.7c.3.4.6 1.1 1 1.2.6.1.6-.7.8-1.2l.6-1.3.5-.9c-.3-1.7 1.2-2.6 1.7-4a7.7 7.7 0 0 1 2.7-3.5c.6-.5.9-1.3 1.8-1.6.6-.2 1-1 1.6-1.4 2-1.3 4.2-2.3 6.5-3.1 1.1.3 2-.1 3-.4 1.5.6 3.1-.5 4.6.3.4.2 1.1 0 1.6 0 1.3.1 2.6.3 3.7 1.2.9.6 1.8 1.1 2.6 1.8.6.5.9 1.4 1.6 1.6.8.3 1.4.7 1.9 1.3.7.7.9 1.8 1.6 2.5.5.6 1.2 1.4.9 2.5-.1.3.4.8.6 1.2.2.5.7.9.2 1.5l-.1.1c1.1.9.3 2.2.9 3.2.4.7 0 1.4.5 2.1.4.5-.3 1.3.1 2v.4c-.9 1.5-.8 3.3-1.5 4.9-.4 1-1.1 1.9-1.7 2.9l-.8 1.2a13.5 13.5 0 0 1-4.8 5c-1.3.8-3.1.9-4.2 2.1l-3.2.4c-1.5.2-3-.3-4.5.3-1.2-.7-2.6.2-3.8-.6h-.9c-.5 0-1 0-1.3-.5a.8.8 0 0 0-.5-.2c-1.7-.3-3.3-.9-4.4-1.6-2-1.5-3.8-3.3-5.4-5.4a11 11 0 0 1-.6-1.1c-.3-.6-.6-1.1-.8-1.8-.4-1-.8-2-1-3l-.4-2.8c0-.2-.2-.3-.4-.5-.1.2-.4.4-.3.5.6.9 0 1.6-.4 2.4l-2.1 4.5c-.4.8-.9 1.5-1.5 2.2-1.8 2-3.8 3.9-6.1 5.4-1.2.8-2.7 1.2-4.1 1.5-2.1.4-4.1 1.1-6 .7" style="stroke:none;stroke-width:1;stroke-dasharray:none;stroke-linecap:butt;stroke-dashoffset:0;stroke-linejoin:miter;stroke-miterlimit:4;fill:#000;fill-rule:nonzero;opacity:1" transform="translate(-271 -147.6)"/>
  <path d="m397.7 297-4.8-2.7c-.6-.4-.9-1.1-1.3-1.6-.2-.3 0-.5.3-.7.8-.4 1.5-1 2.3-1.3 1.8-.7 3.2-2 5.1-2.5 1.4-.3 2.3-1.6 3.5-2.5.2-.1.3-.5.3-.8-.2-1-.2-2.2-1.5-2.7-.3-.1-.5-.7-.7-1l-1.4-1.6c-.5-.5-.9-1.2-1.6-1.5-.6-.3-.8-1.1-1.5-1.3-.3-.1-.5-.6-.9-.9-.5-.3-.3-.8-.1-.9 1-.6 1.5-1.7 2.8-2.1 1-.3 1.8-1.4 2.7-2.2.2-.2.4-.6.6-.6 1 0 1.3-1.1 2.2-1.4.8-.3 1.8-.7 2.3-1.4.7-1.1 1.7-.8 2.5-.7.8 0 1.6.4 2.2.8l3.1 2c1 .6 1.8 1.6 2.7 2.5.1.1.2.5.1.6-.2.4-.5.9-.8 1.1-1.1.6-1.8 2-3.3 2l-4.4 3.1-1.6 1.1-1.7 1.7c-.2.2-.1.6-.1.9.1 1.6 1.1 2.7 2.4 3.6.5.3 1 .4 1.2 1l.4.4c1.2.2 1.7 1.3 2.6 1.9.5.3 1.1 1 1.1 1.5s-.8 1-1.3 1.4l-4.7 2.8-3.8 2.4c-.4.2-.8.7-1.2.7-.8 0-1.4.2-2.2 0-.5-.1-.8-.5-1.2-.6 0-.4-.3-.6-.3-.5m40.2 0-4.8-2.7c-.6-.4-.9-1.1-1.3-1.6-.2-.3 0-.5.3-.7.8-.4 1.5-1 2.3-1.3 1.8-.7 3.2-2 5.1-2.5 1.4-.3 2.3-1.6 3.5-2.5.2-.1.3-.5.3-.8-.2-1-.2-2.2-1.5-2.7-.3-.1-.5-.7-.7-1l-1.4-1.6c-.5-.5-.9-1.2-1.6-1.5-.6-.3-.8-1.1-1.5-1.3-.3-.1-.5-.6-.9-.9-.5-.3-.3-.8-.1-.9 1-.6 1.5-1.7 2.8-2.1 1-.3 1.8-1.4 2.7-2.2.2-.2.4-.6.6-.6 1 0 1.3-1.1 2.2-1.4.8-.3 1.8-.7 2.3-1.4.7-1.1 1.7-.8 2.5-.7.8 0 1.6.4 2.2.8l3.1 2c1 .6 1.8 1.6 2.7 2.5.1.1.2.5.1.6-.2.4-.5.9-.8 1.1-1.1.6-1.8 2-3.3 2l-4.4 3.1-1.6 1.1-1.7 1.7c-.2.2-.1.6-.1.9.1 1.6 1.1 2.7 2.4 3.6.5.3 1 .4 1.2 1l.4.4c1.2.2 1.7 1.3 2.6 1.9.5.3 1.1 1 1.1 1.5s-.8 1-1.3 1.4l-4.7 2.8-3.8 2.4c-.4.2-.8.7-1.2.7-.8 0-1.4.2-2.2 0-.5-.1-.8-.5-1.2-.6 0-.4-.3-.6-.3-.5" style="stroke:none;stroke-width:1;stroke-dasharray:none;stroke-linecap:butt;stroke-dashoffset:0;stroke-linejoin:miter;stroke-miterlimit:4;fill:#fff;fill-rule:nonzero;opacity:1" transform="translate(-271 -147.6)"/>
</svg>